<?xml version="1.0" encoding="UTF-8"?>
<svg width="496px" height="82px" viewBox="0 0 496 82" version="1.1" xmlns="http://www.w3.org/2000/svg" xmlns:xlink="http://www.w3.org/1999/xlink">
    <!-- Generator: sketchtool 50.2 (55047) - http://www.bohemiancoding.com/sketch -->
    <title>238AACD9-0BAF-42D8-9456-FCCFB063C960</title>
    <desc>Created with sketchtool.</desc>
    <defs></defs>
    <g id="Page-1" stroke="none" stroke-width="1" fill="none" fill-rule="evenodd">
        <g id="Home" transform="translate(-509.000000, -453.000000)" fill="#000000" fill-rule="nonzero">
            <g id="BS-Logo" transform="translate(508.397354, 452.248486)">
                <path d="M2.19029065,1.4617018 L12.3320845,1.4617018 C14.8591541,1.4617018 16.804171,1.76222422 18.1671351,2.36326906 C19.4998638,2.93785669 20.6241078,3.907678 21.3879758,5.14170499 C22.167849,6.38037989 22.5750461,7.81720371 22.5610187,9.28087069 C22.57559,10.6435027 22.2149871,11.9838786 21.5186863,13.1552638 C20.7763524,14.3637034 19.7137019,15.3428268 18.4486654,15.983973 C20.1222066,16.5447993 21.4058507,17.2028205 22.2995977,17.9580367 C23.1885622,18.7073979 23.9014719,19.6434494 24.3876141,20.6996055 C24.8952001,21.7992002 25.1527433,22.9976345 25.1417131,24.2086796 C25.1860918,26.6866601 24.1601168,29.0635021 22.3264101,30.7307982 C20.4428383,32.5004172 17.9302921,33.3863439 14.7887715,33.3885783 L2.19029065,33.3885783 L2.19029065,1.4617018 Z M5.31393634,4.58869904 L5.31393634,14.8109301 L10.9780578,14.8109301 C13.1878472,14.8109301 14.8133496,14.603134 15.8545648,14.1875416 C16.8565178,13.8011024 17.7193653,13.1227337 18.3313611,12.2402904 C18.9361427,11.3727042 19.255921,10.338403 19.2463346,9.28087069 C19.3114579,7.95323703 18.7446956,6.67305031 17.7180272,5.82877298 C16.6969213,5.00205702 15.0747705,4.58869904 12.8515749,4.58869904 L5.31393634,4.58869904 Z M5.31393634,18.0183646 L5.31393634,30.2582295 L13.1096444,30.2582295 C15.4356209,30.2582295 17.1404433,30.0280896 18.2241115,29.56781 C19.2834814,29.1269544 20.1917698,28.3875145 20.8383214,27.439575 C22.2973841,25.3302672 22.1329213,22.4984664 20.4394868,20.5722466 C19.4293239,19.4603401 18.0908938,18.6995483 16.6187185,18.4004414 C15.5261128,18.130083 13.6380723,18.0004897 10.954597,18.0116615 L5.31393634,18.0183646 Z M54.0354358,1.4617018 L57.2428702,1.4617018 L57.2428702,30.2850419 L69.5162506,30.2850419 L69.5162506,33.3785236 L54.0354358,33.3785236 L54.0354358,1.4617018 Z M112.942299,0.985781532 C117.757361,0.985781532 121.794863,2.60011201 125.054805,5.82877298 C128.314747,9.05743394 129.94025,13.0323736 129.931312,17.7535921 C129.931312,22.4144826 128.309161,26.2453056 125.06486,29.246061 C121.820558,32.2468165 117.865728,33.7471943 113.200369,33.7471943 C108.459041,33.7471943 104.46064,32.128395 101.205167,28.8907966 C97.9496936,25.6531982 96.3208398,21.9910699 96.3186054,17.9044119 C96.299992,14.9186847 97.0637996,11.9801632 98.5339807,9.38141723 C99.9592993,6.81136875 102.0591,4.67912104 104.606991,3.21456306 C107.136422,1.74032837 110.014645,0.970719208 112.942299,0.985781532 Z M101.419666,10.9566463 C100.233742,13.0842996 99.625925,15.4855228 99.6567504,17.9211696 C99.6567504,21.7195943 100.96609,24.7896152 103.584768,27.1312322 C106.203447,29.4728493 109.366194,30.6492438 113.07301,30.6604156 C115.481479,30.6752386 117.850913,30.0519467 119.940338,28.8539296 C121.999443,27.6898418 123.699989,25.9835002 124.857064,23.9204462 C125.97651,22.0553229 126.585646,19.9285458 126.623331,17.7535921 C126.655542,15.3481679 126.045848,12.9776497 124.857064,10.8862637 C123.677113,8.83014979 121.963212,7.13130268 119.896768,5.96953813 C117.824888,4.76070789 115.468396,4.12560044 113.069658,4.12953653 C108.249393,4.17456882 103.814812,6.77331525 101.419666,10.9566463 Z M189.206846,7.65871992 L186.66637,9.55234633 C185.358777,7.80394311 183.647784,6.39766348 181.679262,5.45339925 C179.675786,4.51526395 177.48655,4.04098679 175.274448,4.06585706 C172.793412,4.04640456 170.350577,4.67733543 168.189269,5.895804 C166.09158,7.04720535 164.345883,8.74656649 163.138481,10.8125296 C161.924589,12.9291601 161.303989,15.3339862 161.34205,17.7737014 C161.34205,21.6637351 162.677084,24.7918495 165.347153,27.1580447 C168.017222,29.5242398 171.383297,30.7151576 175.445377,30.7307982 C179.927518,30.7307982 183.667849,28.9801713 186.66637,25.4789175 L189.206846,27.3960048 C187.619299,29.4118317 185.574225,31.0203174 183.241085,32.0881764 C180.738821,33.2171382 178.019364,33.7834532 175.274448,33.7471943 C169.675123,33.7471943 165.260013,31.8893177 162.029118,28.1735647 C159.332236,25.0298097 157.982678,21.4715795 157.980444,17.4988742 C157.980444,12.8379837 159.62047,8.90661414 162.900521,5.70476559 C166.180572,2.50291703 170.282871,0.901992753 175.207417,0.901992753 C178.004326,0.860221543 180.77275,1.46828826 183.29471,2.67831488 C185.650057,3.81922521 187.682492,5.53135517 189.206846,7.65871992 Z M221.519151,1.62592781 L221.519151,13.9428784 L235.558799,1.63263091 L240.381681,1.63263091 L228.56076,12.5218207 L241.56813,33.5494527 L237.368637,33.5494527 L225.437114,14.9785077 L221.519151,18.4205507 L221.519151,33.5494527 L218.268146,33.5494527 L218.268146,1.63263091 L221.519151,1.62592781 Z M295.926939,9.55234633 C294.62012,7.80320334 292.908928,6.39676023 290.939831,5.45339925 C288.936354,4.51526395 286.747118,4.04098679 284.535016,4.06585706 C282.05398,4.04640456 279.611145,4.67733543 277.449837,5.895804 C275.352148,7.04720535 273.606452,8.74656649 272.399049,10.8125296 C271.186701,12.9297884 270.566212,15.3341835 270.602618,17.7737014 C270.602618,21.6637351 271.943239,24.7918495 274.624479,27.1580447 C277.30572,29.5242398 280.660623,30.7151576 284.689188,30.7307982 C289.169094,30.7307982 292.909425,28.9801713 295.910181,25.4789175 L298.467415,27.3960048 C296.879868,29.4118317 294.834793,31.0203174 292.501653,32.0881764 C289.994526,33.2203799 287.268896,33.7867892 284.518259,33.7471943 C278.916699,33.7471943 274.501589,31.8893177 271.272928,28.1735647 C268.573812,25.0298097 267.224254,21.4715795 267.224254,17.4988742 C267.224254,12.8379837 268.865397,8.90661414 272.147683,5.70476559 C275.429969,2.50291703 279.532268,0.901992753 284.454579,0.901992753 C287.250421,0.860129968 290.017778,1.46821415 292.53852,2.67831488 C294.900597,3.81592353 296.939224,5.52841621 298.467415,7.65871992 L295.926939,9.55234633 Z M327.920846,1.54549058 L331.128281,1.54549058 L331.128281,14.931586 L347.400062,14.931586 L347.400062,1.54549058 L350.587387,1.54549058 L350.587387,33.4623124 L347.400062,33.4623124 L347.400062,18.075341 L331.128281,18.075341 L331.128281,33.4623124 L327.920846,33.4623124 L327.920846,1.54549058 Z M394.492707,1.4617018 L409.373594,33.3751721 L405.97177,33.3751721 L400.944443,22.8513014 L387.162865,22.8513014 L382.189163,33.3751721 L378.613058,33.3751721 L393.695038,1.4617018 L394.492707,1.4617018 Z M394.107279,8.21842897 L388.593977,19.7980383 L399.53344,19.7980383 L394.107279,8.21842897 Z M437.007134,1.54549058 L440.194459,1.54549058 L440.194459,33.4623124 L437.007134,33.4623124 L437.007134,1.54549058 Z M470.656708,33.465664 L470.656708,1.54884213 L471.327018,1.54884213 L492.559095,25.9749471 L492.559095,1.54884213 L495.70285,1.54884213 L495.70285,33.465664 L494.972211,33.465664 L473.954634,9.33449551 L473.954634,33.465664 L470.656708,33.465664 Z M3.53861128,73.4282491 C5.44676108,76.9451434 7.64984739,78.7024734 10.1478702,78.7002391 C11.2064297,78.7039573 12.2495087,78.4460659 13.1843756,77.9494916 C14.0782892,77.497501 14.8247245,76.7998979 15.3360714,75.9385609 C15.8210251,75.1286246 16.0748722,74.2013293 16.0700611,73.2573199 C16.0463091,72.124188 15.6702858,71.0265747 14.9942132,70.1169165 C13.9887478,68.6958588 12.1576837,67.24352 9.50102082,65.7599 C6.83318608,63.7489693 5.18198854,62.2966304 4.54742818,61.4028834 C3.44903477,60.0106854 2.85056624,58.2896458 2.84819174,56.5163218 C2.83054551,55.1878847 3.17215177,53.879359 3.83689933,52.729069 C4.50718163,51.5865463 5.48036537,50.6516404 6.64885077,50.0277188 C7.85818476,49.3597356 9.21880365,49.0135221 10.6003296,49.0222534 C12.0757611,49.0255891 13.5234242,49.4236675 14.7931201,50.175187 C16.1002251,50.9259345 17.4855329,52.2989533 18.9490436,54.2942434 L16.3448883,56.2549008 C15.1517361,54.675203 14.1317474,53.6306363 13.2849221,53.1212005 C12.4472894,52.6143842 11.4854855,52.3498591 10.5064862,52.3570468 C9.34398682,52.3126815 8.21202209,52.7350564 7.36273117,53.5300897 C6.56351611,54.2705804 6.11741763,55.3163523 6.13606344,56.4057206 C6.13985559,57.0983349 6.28587237,57.7827885 6.56506199,58.4166513 C6.95679083,59.2161016 7.4983741,59.932903 8.16040035,60.5281286 C8.5759927,60.9437209 9.95459741,62.0117486 12.2962145,63.7322115 C15.0511896,65.7699546 16.9425816,67.4557849 17.9703906,68.7897022 C18.9660218,70.0365311 19.5084571,71.584658 19.5087526,73.1802343 C19.5165646,75.4725193 18.5591749,77.6622288 16.8710819,79.2130264 C15.1768158,80.9047328 12.8703052,81.8391839 10.4763222,81.8037754 C8.59659717,81.8247716 6.75316732,81.2857434 5.18087136,80.2553588 C3.60117357,79.2186123 2.14883473,77.4892119 0.823854828,75.0671576 L3.53861128,73.4282491 Z M51.8914401,49.5920171 L51.8914401,62.9881671 L68.1498148,62.9881671 L68.1498148,49.6020718 L71.33714,49.6020718 L71.33714,81.5188936 L68.1498148,81.5188936 L68.1498148,66.1319221 L51.8914401,66.1319221 L51.8914401,81.5188936 L48.6840056,81.5188936 L48.6840056,49.6020718 L51.8914401,49.5920171 Z M104.919683,49.5920171 L104.919683,81.5188936 L101.735709,81.5188936 L101.735709,49.6020718 L104.919683,49.5920171 Z M152.954114,49.5920171 L152.954114,52.7458268 L138.542444,52.7458268 L138.542444,62.7300977 L147.092251,62.7300977 L147.092251,65.8738527 L138.542444,65.8738527 L138.542444,81.5188936 L135.358471,81.5188936 L135.358471,49.6054233 L152.954114,49.5920171 Z M178.955448,52.6922019 L178.955448,49.6054233 L196.487412,49.6054233 L196.487412,52.7022566 L189.341905,52.7022566 L189.341905,81.5255967 L186.090901,81.5255967 L186.090901,52.7022566 L178.955448,52.6922019 Z" id="Shape"></path>
            </g>
        </g>
    </g>
</svg>