<?xml version="1.0" encoding="UTF-8"?>
<svg width="232px" height="39px" viewBox="0 0 232 39" version="1.1" xmlns="http://www.w3.org/2000/svg" xmlns:xlink="http://www.w3.org/1999/xlink">
    <!-- Generator: sketchtool 50.2 (55047) - http://www.bohemiancoding.com/sketch -->
    <title>4C65F005-EDD7-4654-B1C3-4EB0924831C3</title>
    <desc>Created with sketchtool.</desc>
    <defs></defs>
    <g id="Page-1" stroke="none" stroke-width="1" fill="none" fill-rule="evenodd">
        <g id="iPhone-8" transform="translate(-72.000000, -286.000000)" fill="#FFFFFF" fill-rule="nonzero">
            <g id="BS-Logo-Copy-2" transform="translate(72.220281, 285.724609)">
                <path d="M0.0280235477,0.686056835 L4.78812373,0.686056835 C5.9742161,0.686056835 6.88711921,0.827108492 7.52683305,1.10921181 C8.15235575,1.3788973 8.68002513,1.83408764 9.03855026,2.4132842 C9.40458755,2.99466227 9.59570746,3.66904251 9.58912364,4.35602171 C9.59596275,4.99557967 9.42671205,5.62469158 9.09989986,6.17448695 C8.75148184,6.74167393 8.25272168,7.20123024 7.65897066,7.50215534 C8.44445536,7.76538185 9.04693995,8.0742273 9.46642443,8.42869169 C9.88366425,8.780408 10.2182719,9.21974831 10.4464451,9.71546034 C10.684683,10.2315604 10.8055622,10.7940514 10.8003851,11.3624613 C10.8212144,12.5255135 10.3396681,13.6410958 9.47900896,14.4236493 C8.59494541,15.2542286 7.41566966,15.6700426 5.9411817,15.6710913 L0.0280235477,15.6710913 L0.0280235477,0.686056835 Z M1.49412182,2.15372817 L1.49412182,6.95158195 L4.15260473,6.95158195 C5.18978012,6.95158195 5.95271752,6.85405181 6.44141695,6.65899153 C6.91168846,6.47761438 7.31667012,6.15921878 7.60391332,5.74503971 C7.88777051,5.33783393 8.03786,4.85237964 8.03336056,4.35602171 C8.06392651,3.73289041 7.79791389,3.13202855 7.31604209,2.73576289 C6.83678107,2.34773975 6.07541673,2.15372817 5.03194908,2.15372817 L1.49412182,2.15372817 Z M1.49412182,8.45700689 L1.49412182,14.2018469 L5.15307523,14.2018469 C6.24478359,14.2018469 7.04495025,14.0938296 7.55357518,13.8777951 C8.05079561,13.6708774 8.47710516,13.3238177 8.7805673,12.8788977 C9.46538548,11.8888839 9.38819407,10.5597644 8.59337235,9.65568381 C8.11924749,9.13380511 7.49104881,8.77672376 6.80007618,8.63633651 C6.2872564,8.50944245 5.40109543,8.4486172 4.14159326,8.45386076 L1.49412182,8.45700689 Z M24.3617941,0.686056835 L25.867219,0.686056835 L25.867219,14.2144314 L31.6277897,14.2144314 L31.6277897,15.6663721 L24.3617941,15.6663721 L24.3617941,0.686056835 Z M52.0100164,0.462681347 C54.2699891,0.462681347 56.1650102,1.2203752 57.6950799,2.73576289 C59.2251495,4.25115059 59.9880869,6.11680783 59.9838921,8.33273462 C59.9838921,10.5203462 59.2225277,12.3183616 57.6997991,13.7267807 C56.1770704,15.1351999 54.3208515,15.8394094 52.1311425,15.8394094 C49.9057774,15.8394094 48.0291087,15.0796182 46.5011364,13.5600356 C44.9731642,12.0404531 44.2086537,10.3216154 44.207605,8.40352262 C44.1988687,7.0021571 44.5573655,5.62294775 45.2474022,4.40321372 C45.9163824,3.19694899 46.9019339,2.19616817 48.0977992,1.50877078 C49.2849998,0.816831569 50.6359075,0.455611773 52.0100164,0.462681347 Z M46.6018127,5.14255512 C46.0451933,6.14117953 45.7599115,7.26820531 45.7743796,8.41138796 C45.7743796,10.194197 46.3889243,11.6351262 47.6180139,12.7341756 C48.8471034,13.8332249 50.3315541,14.3853714 52.071366,14.3906149 C53.2017926,14.3975721 54.3138981,14.105027 55.2945799,13.5427319 C56.2610309,12.9963617 57.0591902,12.195482 57.6022689,11.2271776 C58.1276863,10.3517729 58.4135875,9.35355972 58.4312751,8.33273462 C58.4463934,7.2037371 58.1602305,6.09112288 57.6022689,5.10952071 C57.0484535,4.14447367 56.2440255,3.34711153 55.27413,2.8018317 C54.3016829,2.23446136 53.1956522,1.93637059 52.0697929,1.93821802 C49.8073783,1.95935414 47.7259859,3.17908839 46.6018127,5.14255512 Z M87.8051517,3.59465737 L86.6127671,4.48344012 C85.9990418,3.66281858 85.1959791,3.00277441 84.2720437,2.55957941 C83.3317024,2.11926105 82.3041739,1.89665676 81.265913,1.90832975 C80.1014266,1.89919962 78.9548702,2.19533009 77.9404498,2.76722423 C76.9558894,3.30764004 76.1365381,4.10524344 75.5698381,5.07491324 C75.000092,6.06836408 74.7088102,7.19708086 74.7266743,8.34217302 C74.7266743,10.1679792 75.3532792,11.6361749 76.6064891,12.7467601 C77.859699,13.8573453 79.4395824,14.4163083 81.3461394,14.4236493 C83.4498541,14.4236493 85.2053967,13.6019841 86.6127671,11.9586536 L87.8051517,12.8584478 C87.0600289,13.804586 86.1001632,14.5595365 85.0050928,15.0607414 C83.8306429,15.590625 82.5542529,15.8564278 81.265913,15.8394094 C78.6378427,15.8394094 76.5655894,14.9674061 75.049153,13.2233993 C73.7833585,11.7478627 73.149937,10.0777901 73.1488882,8.21318154 C73.1488882,6.02556996 73.9186423,4.18036258 75.4581503,2.67755942 C76.9976584,1.17475626 78.9230922,0.423354677 81.2344517,0.423354677 C82.5471944,0.403749157 83.8465679,0.689148223 85.0302619,1.25708009 C86.1357556,1.79257189 87.0896885,2.5961684 87.8051517,3.59465737 Z M102.971089,0.763137109 L102.971089,6.54415765 L109.560666,0.766283242 L111.824309,0.766283242 L106.276102,5.87717732 L112.381175,15.7465985 L110.410122,15.7465985 L104.810004,7.03023529 L102.971089,8.64577491 L102.971089,15.7465985 L101.445214,15.7465985 L101.445214,0.766283242 L102.971089,0.763137109 Z M137.894745,4.48344012 C137.281384,3.66247137 136.478227,3.00235047 135.554022,2.55957941 C134.613681,2.11926105 133.586152,1.89665676 132.547891,1.90832975 C131.383405,1.89919962 130.236848,2.19533009 129.222428,2.76722423 C128.237867,3.30764004 127.418516,4.10524344 126.851816,5.07491324 C126.282795,6.06865895 125.991565,7.19717346 126.008652,8.34217302 C126.008652,10.1679792 126.637879,11.6361749 127.896333,12.7467601 C129.154786,13.8573453 130.729426,14.4163083 132.620252,14.4236493 C134.722918,14.4236493 136.478461,13.6019841 137.88688,11.9586536 L139.08713,12.8584478 C138.342007,13.804586 137.382141,14.5595365 136.287071,15.0607414 C135.110338,15.5921466 133.831051,15.8579935 132.540026,15.8394094 C129.910907,15.8394094 127.838653,14.9674061 126.323266,13.2233993 C125.056423,11.7478627 124.423001,10.0777901 124.423001,8.21318154 C124.423001,6.02556996 125.193279,4.18036258 126.733836,2.67755942 C128.274393,1.17475626 130.199827,0.423354677 132.510138,0.423354677 C133.82238,0.403706176 135.121252,0.689113438 136.304375,1.25708009 C137.413027,1.79102223 138.369866,2.59478899 139.08713,3.59465737 L137.894745,4.48344012 Z M152.911241,0.725383505 L154.416666,0.725383505 L154.416666,7.00821236 L162.053905,7.00821236 L162.053905,0.725383505 L163.549892,0.725383505 L163.549892,15.7056988 L162.053905,15.7056988 L162.053905,8.48374903 L154.416666,8.48374903 L154.416666,15.7056988 L152.911241,15.7056988 L152.911241,0.725383505 Z M184.157067,0.686056835 L191.141484,15.664799 L189.544821,15.664799 L187.185221,10.7253692 L180.71677,10.7253692 L178.382339,15.664799 L176.703877,15.664799 L183.782677,0.686056835 L184.157067,0.686056835 Z M183.976164,3.85735953 L181.38847,9.29230537 L186.52296,9.29230537 L183.976164,3.85735953 Z M204.11142,0.725383505 L205.607406,0.725383505 L205.607406,15.7056988 L204.11142,15.7056988 L204.11142,0.725383505 Z M219.90501,15.7072718 L219.90501,0.726956572 L220.219624,0.726956572 L230.185002,12.1914675 L230.185002,0.726956572 L231.660539,0.726956572 L231.660539,15.7072718 L231.31761,15.7072718 L221.452908,4.38119078 L221.452908,15.7072718 L219.90501,15.7072718 Z M66.6608644,34.4639051 C67.5564638,36.1145766 68.590493,36.9393879 69.7629521,36.9383392 C70.2597922,36.9400844 70.7493664,36.8190418 71.1881507,36.5859723 C71.6077134,36.3738283 71.9580564,36.0464049 72.1980596,35.6421322 C72.4256749,35.2619847 72.5448193,34.8267541 72.5425612,34.3836787 C72.5314131,33.8518378 72.3549247,33.3366676 72.0376068,32.9097151 C71.5656867,32.2427348 70.7062679,31.5610725 69.4593502,30.8647283 C68.2071891,29.9208882 67.4321915,29.2392259 67.1343575,28.8197414 C66.6188212,28.1663065 66.3379271,27.3585282 66.3368126,26.52621 C66.3285303,25.9027016 66.4888648,25.2885387 66.8008673,24.7486445 C67.1154676,24.2123959 67.5722361,23.7735933 68.1206704,23.4807526 C68.6882772,23.1672315 69.3268902,23.0047345 69.9753162,23.0088326 C70.6678171,23.0103982 71.3472848,23.1972383 71.9432227,23.5499676 C72.5567188,23.9023346 73.2069197,24.5467676 73.8938256,25.4832667 L72.6715527,26.4035108 C72.1115409,25.662072 71.6328042,25.1717995 71.2353427,24.9326933 C70.8421957,24.6948166 70.3907684,24.5706605 69.9312703,24.5740341 C69.3856456,24.553211 68.8543524,24.7514547 68.4557336,25.1246075 C68.0806181,25.4721604 67.8712397,25.9629985 67.8799912,26.4742988 C67.881771,26.7993807 67.9503047,27.1206323 68.0813437,27.4181389 C68.2652035,27.7933648 68.5193983,28.129799 68.8301235,28.409171 C69.0251838,28.6042313 69.6722386,29.1055152 70.771288,29.9130228 C72.0643489,30.8694475 72.9520829,31.6607001 73.4344901,32.2867807 C73.9017944,32.8719859 74.1563891,33.5986067 74.1565277,34.3474982 C74.1601943,35.4233933 73.7108388,36.4511441 72.9185242,37.1790185 C72.1233122,37.9730291 71.0407402,38.4116183 69.9171127,38.3949991 C69.0348546,38.4048538 68.1696319,38.1518583 67.4316671,37.6682422 C66.6902283,37.1816402 66.008566,36.3699378 65.3866803,35.2331348 L66.6608644,34.4639051 Z M89.3554993,23.276254 L89.3554993,29.563802 L96.9864464,29.563802 L96.9864464,23.2809732 L98.482433,23.2809732 L98.482433,38.2612884 L96.9864464,38.2612884 L96.9864464,31.0393387 L89.3554993,31.0393387 L89.3554993,38.2612884 L87.8500744,38.2612884 L87.8500744,23.2809732 L89.3554993,23.276254 Z M114.244562,23.276254 L114.244562,38.2612884 L112.750149,38.2612884 L112.750149,23.2809732 L114.244562,23.276254 Z M136.789756,23.276254 L136.789756,24.7565098 L130.025569,24.7565098 L130.025569,29.4426759 L134.038462,29.4426759 L134.038462,30.9182125 L130.025569,30.9182125 L130.025569,38.2612884 L128.531155,38.2612884 L128.531155,23.2825462 L136.789756,23.276254 Z M148.993608,24.7313408 L148.993608,23.2825462 L157.222321,23.2825462 L157.222321,24.73606 L153.868542,24.73606 L153.868542,38.2644346 L152.342668,38.2644346 L152.342668,24.73606 L148.993608,24.7313408 Z" id="Shape"></path>
            </g>
        </g>
    </g>
</svg>