<?xml version="1.0" encoding="UTF-8"?>
<svg width="653px" height="30px" viewBox="0 0 653 30" version="1.1" xmlns="http://www.w3.org/2000/svg" xmlns:xlink="http://www.w3.org/1999/xlink">
    <!-- Generator: sketchtool 50.2 (55047) - http://www.bohemiancoding.com/sketch -->
    <title>F4A7F0A7-8EBF-46B3-B115-917DF8FBB956</title>
    <desc>Created with sketchtool.</desc>
    <defs></defs>
    <g id="Page-1" stroke="none" stroke-width="1" fill="none" fill-rule="evenodd">
        <g id="Home" transform="translate(-392.000000, -400.000000)" fill="#FFFFFF" fill-rule="nonzero">
            <g id="BS-Logo-White" transform="translate(392.411671, 400.000000)">
                <path d="M0.164826369,1.26610006 L8.94946756,1.26610006 C11.1383702,1.26610006 12.8231092,1.52640723 14.0036845,2.04702157 C15.1580703,2.54471914 16.1318705,3.38476108 16.7935193,4.45365328 C17.4690316,5.52657141 17.8217384,6.77112262 17.8095882,8.03892488 C17.8222096,9.21921248 17.5098618,10.3802222 16.9067384,11.3948552 C16.263742,12.4415841 15.3432931,13.2896833 14.247541,13.8450327 C15.6971326,14.3308104 16.8090022,14.9007767 17.58315,15.5549315 C18.3531552,16.2040148 18.9706648,17.0148059 19.3917526,17.9296296 C19.8314146,18.8820789 20.0544939,19.9201414 20.0449397,20.9691271 C20.0833797,23.1155096 19.1946985,25.1742878 17.6063744,26.61847 C15.9748581,28.1512825 13.7985353,28.9186564 11.0774061,28.9205918 L0.164826369,28.9205918 L0.164826369,1.26610006 Z M2.87047263,3.97464938 L2.87047263,12.8289639 L7.77663378,12.8289639 C9.690714,12.8289639 11.0986952,12.6489745 12.0005772,12.2889958 C12.8684511,11.954269 13.6158342,11.3666782 14.1459341,10.6023215 C14.6697852,9.85083383 14.9467714,8.95494055 14.9384678,8.03892488 C14.9948765,6.88895225 14.5039571,5.78007732 13.6146752,5.04877933 C12.7302115,4.3326927 11.3251334,3.97464938 9.39944092,3.97464938 L2.87047263,3.97464938 Z M2.87047263,15.6071865 L2.87047263,26.2091394 L9.62297608,26.2091394 C11.6376955,26.2091394 13.1143823,26.0097964 14.0530364,25.6111103 C14.9706437,25.2292491 15.7573869,24.5887594 16.3174184,23.7676711 C17.5812326,21.9406263 17.4387779,19.4877709 15.971955,17.8193136 C15.0969699,16.8562 13.9376456,16.1972156 12.6624735,15.9381346 C11.716078,15.7039549 10.0806909,15.5917035 7.7563124,15.6013804 L2.87047263,15.6071865 Z M45.0721676,1.26610006 L47.8503902,1.26610006 L47.8503902,26.2323639 L58.4813737,26.2323639 L58.4813737,28.9118826 L45.0721676,28.9118826 L45.0721676,1.26610006 Z M96.0962435,0.853866404 C100.266964,0.853866404 103.764177,2.25217071 106.58788,5.04877933 C109.411584,7.84538795 110.819565,11.2884099 110.811824,15.3778452 C110.811824,19.4150256 109.406746,22.7332162 106.59659,25.3324171 C103.786433,27.9316181 100.36083,29.2312186 96.3197787,29.2312186 C92.212925,29.2312186 88.7495817,27.8290435 85.9297486,25.0246934 C83.1099156,22.2203433 81.6990314,19.0482731 81.697096,15.5084826 C81.6809735,12.922299 82.34257,10.377004 83.6160147,8.1260165 C84.8506002,5.89988629 86.66941,4.0529713 88.8763484,2.78439727 C91.0672962,1.50744144 93.5603613,0.840819688 96.0962435,0.853866404 Z M86.1155441,9.49045185 C85.0883175,11.3333873 84.5618373,13.413284 84.5885377,15.5229979 C84.5885377,18.8131257 85.7226641,21.4723231 87.9909169,23.5005901 C90.2591697,25.5288571 92.998685,26.5478291 96.2094626,26.5575059 C98.2956355,26.5703453 100.347997,26.0304609 102.15782,24.9927598 C103.94138,23.9844478 105.414363,22.5064451 106.4166,20.7194645 C107.386244,19.1039279 107.913868,17.2617514 107.94651,15.3778452 C107.97441,13.2943096 107.446304,11.241009 106.4166,9.42948772 C105.394548,7.64851847 103.909997,6.17700736 102.12008,5.1707076 C100.325455,4.12364038 98.2843035,3.57352162 96.2065596,3.57693099 C92.031332,3.61593715 88.1901765,5.86692503 86.1155441,9.49045185 Z M162.155236,6.63384678 L159.954721,8.27407225 C158.822107,6.75963652 157.340075,5.54154215 155.634977,4.72363729 C153.899601,3.91104121 152.003324,3.50023078 150.087241,3.52177297 C147.938211,3.50492356 145.822271,4.05142464 143.950185,5.10684041 C142.133204,6.10416376 140.621112,7.5761201 139.575282,9.36562053 C138.523831,11.1990082 137.986278,13.2820257 138.019245,15.3952635 C138.019245,18.7647415 139.175628,21.4742585 141.488395,23.5238145 C143.801161,25.5733706 146.716795,26.6049225 150.235296,26.61847 C154.117647,26.61847 157.357455,25.1021082 159.954721,22.0693845 L162.155236,23.7299314 C160.780131,25.4760048 159.008724,26.8692464 156.9878,27.7942069 C154.820383,28.7720934 152.464838,29.2626254 150.087241,29.2312186 C145.237205,29.2312186 141.412915,27.621959 138.614371,24.4034399 C136.278381,21.6803753 135.109418,18.5982997 135.107482,15.1572131 C135.107482,11.1200328 136.528043,7.71475053 139.369165,4.94136634 C142.210288,2.16798215 145.763626,0.781290056 150.029179,0.781290056 C152.451812,0.745108579 154.849772,1.27180514 157.034249,2.31990864 C159.074409,3.30814485 160.834867,4.79116132 162.155236,6.63384678 Z M190.143579,1.40834971 L190.143579,12.0770729 L202.304472,1.41415581 L206.481966,1.41415581 L196.242895,10.846178 L207.509647,29.0599384 L203.872121,29.0599384 L193.537249,12.9741166 L190.143579,15.955553 L190.143579,29.0599384 L187.327616,29.0599384 L187.327616,1.41415581 L190.143579,1.40834971 Z M254.594279,8.27407225 C253.462336,6.75899574 251.980132,5.54075977 250.274535,4.72363729 C248.539159,3.91104121 246.642882,3.50023078 244.726799,3.52177297 C242.577769,3.50492356 240.461829,4.05142464 238.589743,5.10684041 C236.772762,6.10416376 235.260671,7.5761201 234.21484,9.36562053 C233.164726,11.1995524 232.627269,13.2821966 232.658803,15.3952635 C232.658803,18.7647415 233.820025,21.4742585 236.142468,23.5238145 C238.464911,25.5733706 241.370868,26.6049225 244.860339,26.61847 C248.740755,26.61847 251.980563,25.1021082 254.579764,22.0693845 L256.794794,23.7299314 C255.419689,25.4760048 253.648282,26.8692464 251.627358,27.7942069 C249.455729,28.7749014 247.094836,29.265515 244.712283,29.2312186 C239.860313,29.2312186 236.036023,27.621959 233.239414,24.4034399 C230.901488,21.6803753 229.732525,18.5982997 229.732525,15.1572131 C229.732525,11.1200328 231.154054,7.71475053 233.997111,4.94136634 C236.840169,2.16798215 240.393507,0.781290056 244.657125,0.781290056 C247.078834,0.745029257 249.475869,1.27174095 251.659291,2.31990864 C253.70528,3.30528499 255.471103,4.78861565 256.794794,6.63384678 L254.594279,8.27407225 Z M282.306832,1.33867641 L285.085054,1.33867641 L285.085054,12.9334738 L299.179381,12.9334738 L299.179381,1.33867641 L301.940186,1.33867641 L301.940186,28.984459 L299.179381,28.984459 L299.179381,15.6565384 L285.085054,15.6565384 L285.085054,28.984459 L282.306832,28.984459 L282.306832,1.33867641 Z M339.970192,1.26610006 L352.859751,28.9089796 L349.913152,28.9089796 L345.558571,19.7933902 L333.621213,19.7933902 L329.313081,28.9089796 L326.215522,28.9089796 L339.279265,1.26610006 L339.970192,1.26610006 Z M339.636341,7.11865679 L334.860817,17.1487081 L344.336385,17.1487081 L339.636341,7.11865679 Z M376.795431,1.33867641 L379.556235,1.33867641 L379.556235,28.984459 L376.795431,28.984459 L376.795431,1.33867641 Z M405.942093,28.987362 L405.942093,1.34157946 L406.522703,1.34157946 L424.91355,22.4990365 L424.91355,1.34157946 L427.636615,1.34157946 L427.636615,28.987362 L427.003749,28.987362 L408.798698,8.08537375 L408.798698,28.987362 L405.942093,28.987362 Z M484.806456,21.9764868 C486.459261,25.0227581 488.367535,26.544926 490.531278,26.5429906 C491.448183,26.5462114 492.35168,26.3228304 493.161445,25.8927066 C493.935737,25.5012003 494.582286,24.896949 495.025206,24.1508742 C495.445264,23.4493218 495.665142,22.6461152 495.660974,21.8284311 C495.640401,20.8469324 495.314696,19.8961992 494.729094,19.1082695 C493.858178,17.8773747 492.272143,16.6193846 489.970989,15.3342994 C487.660158,13.5924671 486.22992,12.334477 485.680275,11.5603293 C484.728866,10.3544322 484.210483,8.86369828 484.208427,7.32767667 C484.193142,6.17700812 484.489035,5.04358647 485.064827,4.04722573 C485.645414,3.05759296 486.488368,2.24779408 487.50049,1.70736426 C488.547993,1.12876914 489.726537,0.828885213 490.92319,0.836448081 C492.201183,0.839337379 493.455123,1.18414581 494.554911,1.83509863 C495.687102,2.48538271 496.887031,3.67466714 498.154698,5.40295191 L495.899025,7.10123846 C494.865538,5.73293238 493.982041,4.82814724 493.248536,4.38688304 C492.522994,3.94788779 491.689897,3.71876088 490.841905,3.72498674 C489.834969,3.68655831 488.854481,4.05241192 488.11884,4.74105562 C487.426574,5.38245545 487.040172,6.2882844 487.056322,7.23187589 C487.059607,7.83180603 487.186084,8.42466758 487.427913,8.97370825 C487.767222,9.66617784 488.236332,10.2870584 488.809767,10.8026322 C489.169746,11.1626109 490.363869,12.0877174 492.392136,13.5779518 C494.778446,15.3430086 496.416736,16.8032447 497.307006,17.9586602 C498.169404,19.0386412 498.639252,20.379601 498.639508,21.7616608 C498.646274,23.7471973 497.817,25.6438846 496.354804,26.9871579 C494.887261,28.4524839 492.889403,29.2618888 490.815777,29.2312186 C489.187593,29.2494051 487.590847,28.7825085 486.228952,27.8900077 C484.860646,26.9919963 483.602656,25.4940205 482.454982,23.3960802 L484.806456,21.9764868 Z M526.688815,1.32996725 L526.688815,12.9334738 L540.771529,12.9334738 L540.771529,1.33867641 L543.532334,1.33867641 L543.532334,28.984459 L540.771529,28.984459 L540.771529,15.6565384 L526.688815,15.6565384 L526.688815,28.984459 L523.910592,28.984459 L523.910592,1.33867641 L526.688815,1.32996725 Z M572.620934,1.32996725 L572.620934,28.984459 L569.863033,28.984459 L569.863033,1.33867641 L572.620934,1.32996725 Z M614.227503,1.32996725 L614.227503,4.061741 L601.744371,4.061741 L601.744371,12.7099387 L609.150062,12.7099387 L609.150062,15.4330032 L601.744371,15.4330032 L601.744371,28.984459 L598.98647,28.984459 L598.98647,1.34157946 L614.227503,1.32996725 Z M636.749395,4.01529213 L636.749395,1.34157946 L651.93527,1.34157946 L651.93527,4.0240013 L645.745959,4.0240013 L645.745959,28.9902651 L642.929997,28.9902651 L642.929997,4.0240013 L636.749395,4.01529213 Z" id="Shape"></path>
            </g>
        </g>
    </g>
</svg>