<?xml version="1.0" encoding="UTF-8"?>
<svg width="303px" height="34px" viewBox="0 0 303 34" version="1.1" xmlns="http://www.w3.org/2000/svg" xmlns:xlink="http://www.w3.org/1999/xlink">
    <!-- Generator: sketchtool 50.2 (55047) - http://www.bohemiancoding.com/sketch -->
    <title>18E7AACC-CEA5-4B08-9282-180E30A70F61</title>
    <desc>Created with sketchtool.</desc>
    <defs></defs>
    <g id="Page-1" stroke="none" stroke-width="1" fill="none" fill-rule="evenodd">
        <g id="Agenda" transform="translate(-239.000000, -2906.000000)" fill="#FFFFFF" fill-rule="nonzero">
            <g id="Footer-Copy" transform="translate(-0.303900, 2758.758282)">
                <g id="BS-Logo-Black" transform="translate(239.859168, 147.292972)">
                    <path d="M0,0.358572169 L4.06381792,0.358572169 C5.07641498,0.358572169 5.85578345,0.478991537 6.40192334,0.719830273 C6.93594789,0.950067598 7.38643259,1.33867511 7.69251455,1.83314985 C8.00500985,2.32948702 8.16817375,2.90522249 8.16255298,3.49171401 C8.1683917,4.03772081 8.0238981,4.57480956 7.74489026,5.04418378 C7.44743699,5.52840565 7.02163282,5.92074049 6.51473256,6.17764786 C7.18532071,6.40237099 7.69967704,6.66604017 8.05780156,6.96865538 C8.41400975,7.26892449 8.69967272,7.64400042 8.89446995,8.06720233 C9.09785975,8.50781002 9.20105733,8.98802278 9.19663751,9.4732887 C9.21442005,10.4662157 8.80331177,11.4186166 8.06854529,12.0867023 C7.31379788,12.7957889 6.30702034,13.1507798 5.04821268,13.1516751 L0,13.1516751 L0,0.358572169 Z M1.25164518,1.61156031 L1.25164518,5.70760944 L3.52125928,5.70760944 C4.40672214,5.70760944 5.0580611,5.62434549 5.47527616,5.45781759 C5.87675884,5.30297134 6.22250194,5.03114896 6.46772872,4.6775538 C6.71006478,4.32991194 6.83819997,3.91546733 6.83435869,3.49171401 C6.86045361,2.95973105 6.63335191,2.44676009 6.22196577,2.10845807 C5.81280851,1.7771929 5.16281252,1.61156031 4.27197779,1.61156031 L1.25164518,1.61156031 Z M1.25164518,6.99282879 L1.25164518,11.897344 L4.37538625,11.897344 C5.30740529,11.897344 5.9905278,11.8051269 6.42475378,11.6206928 C6.84924343,11.4440419 7.21319467,11.1477483 7.47226798,10.7679088 C8.05691459,9.92270897 7.99101432,8.78800607 7.31245491,8.01616958 C6.90768253,7.57062854 6.37137343,7.26577916 5.78147262,7.14592702 C5.3436654,7.03759435 4.58712737,6.9856663 3.51185851,6.99014285 L1.25164518,6.99282879 Z M20.7743554,0.358572169 L22.0595747,0.358572169 L22.0595747,11.9080877 L26.9775196,11.9080877 L26.9775196,13.1476462 L20.7743554,13.1476462 L20.7743554,0.358572169 Z M44.3783421,0.167870866 C46.3077379,0.167870866 47.9255654,0.814733269 49.2318246,2.10845807 C50.5380837,3.40218288 51.1894227,4.99494165 51.1858414,6.8867344 C51.1858414,8.75435374 50.5358454,10.2893649 49.2358535,11.491768 C47.9358615,12.694171 46.3511605,13.2953726 44.4817505,13.2953726 C42.5819,13.2953726 40.9797404,12.6467195 39.6752719,11.3494135 C38.3708034,10.0521074 37.7181214,8.58469225 37.7172261,6.94716791 C37.7097678,5.75078672 38.0158255,4.57332081 38.6049273,3.53200302 C39.1760526,2.50218431 40.0174429,1.64779241 41.0383833,1.06094387 C42.0519265,0.470217867 43.2052306,0.161835391 44.3783421,0.167870866 Z M44.4293748,1.42757384 C42.4978942,1.44561828 40.7209569,2.48693627 39.7612218,4.16319747 C39.2860217,5.0157484 39.0424695,5.97791881 39.0548212,6.95388275 C39.0548212,8.47591193 39.5794736,9.70606963 40.6287784,10.6443559 C41.6780833,11.5826421 42.9453964,12.0540235 44.4307178,12.0585 C45.3957915,12.0644396 46.3452242,11.8146864 47.182457,11.3346409 C48.0075407,10.8681908 48.6889495,10.1844595 49.1525895,9.35779354 C49.6011516,8.61043843 49.8452327,7.75823861 49.8603331,6.8867344 C49.8732399,5.92288067 49.6289354,4.97301376 49.1525895,4.13499517 C48.6797833,3.3111101 47.9930227,2.63038187 47.1649985,2.16486269 C46.3347958,1.68048428 45.3905493,1.42599665 44.4293748,1.42757384 Z M74.9375545,2.84171802 L73.9195856,3.60049433 C73.3956328,2.89990896 72.7100378,2.33641256 71.9212508,1.95804578 C71.1184576,1.58213486 70.2412306,1.39209195 69.354841,1.40205747 C68.3606895,1.39426285 67.3818453,1.64707692 66.5158089,2.13531741 C65.6752648,2.59668406 64.9757639,3.27761826 64.4919577,4.10544989 C64.0055511,4.953584 63.7568765,5.91719806 63.7721275,6.8947922 C63.7721275,8.45352915 64.307076,9.70696494 65.3769729,10.6550996 C66.4468699,11.6032342 67.7956564,12.0804352 69.4233323,12.0867023 C71.2193267,12.0867023 72.7180778,11.3852259 73.9195856,9.98227316 L74.9375545,10.7504502 C74.3014243,11.5581923 73.4819627,12.2027127 72.5470734,12.6306039 C71.5444158,13.082979 70.4547293,13.3099015 69.354841,13.2953726 C67.1111909,13.2953726 65.3420558,12.5509212 64.0474357,11.0620186 C62.966795,9.8023156 62.426027,8.37653238 62.4251316,6.78466891 C62.4251316,4.91704957 63.0822901,3.34174937 64.3966071,2.0587683 C65.7109241,0.775787228 67.3547156,0.134296693 69.3279816,0.134296693 C70.4487034,0.117558964 71.5580114,0.361211365 72.5685608,0.846069164 C73.5123488,1.30323206 74.3267454,1.98928272 74.9375545,2.84171802 Z M86.5824207,0.424377549 L87.8850986,0.424377549 L87.8850986,5.359781 L93.5107871,0.427063483 L95.4433165,0.427063483 L90.7066721,4.79036303 L95.9187268,13.2161375 L94.2359892,13.2161375 L89.455027,5.77475778 L87.8850986,7.15398482 L87.8850986,13.2161375 L86.5824207,13.2161375 L86.5824207,0.427063483 L86.5824207,0.424377549 Z M118.718276,2.84171802 L117.700307,3.60049433 C117.176665,2.89961254 116.49099,2.33605063 115.701973,1.95804578 C114.899179,1.58213486 114.021952,1.39209195 113.135563,1.40205747 C112.141411,1.39426285 111.162567,1.64707692 110.296531,2.13531741 C109.455987,2.59668406 108.756486,3.27761826 108.27268,4.10544989 C107.786892,4.95383574 107.538262,5.91727712 107.552849,6.8947922 C107.552849,8.45352915 108.090036,9.70696494 109.16441,10.6550996 C110.238783,11.6032342 111.583093,12.0804352 113.197339,12.0867023 C114.992438,12.0867023 116.491189,11.3852259 117.693593,9.98227316 L118.718276,10.7504502 C118.082146,11.5581923 117.262684,12.2027127 116.327795,12.6306039 C115.323189,13.084278 114.231029,13.3112383 113.128848,13.2953726 C110.884303,13.2953726 109.115167,12.5509212 107.821443,11.0620186 C106.739907,9.8023156 106.199139,8.37653238 106.199139,6.78466891 C106.199139,4.91704957 106.856745,3.34174937 108.171957,2.0587683 C109.487169,0.775787228 111.130961,0.134296693 113.103332,0.134296693 C114.223626,0.11752227 115.332506,0.361181669 116.342568,0.846069164 C117.289052,1.30190908 118.10593,1.98810508 118.718276,2.84171802 Z M130.52027,0.392146343 L131.805489,0.392146343 L131.805489,5.75595625 L138.325593,5.75595625 L138.325593,0.392146343 L139.602755,0.392146343 L139.602755,13.1812204 L138.325593,13.1812204 L138.325593,7.01565922 L131.805489,7.01565922 L131.805489,13.1812204 L130.52027,13.1812204 L130.52027,0.392146343 Z M157.195622,0.358572169 L163.158395,13.1463032 L161.795283,13.1463032 L159.780833,8.92938709 L154.258553,8.92938709 L152.26559,13.1463032 L150.832644,13.1463032 L156.875996,0.358572169 L157.195622,0.358572169 Z M157.041181,3.06599349 L154.832,7.70594422 L159.215444,7.70594422 L157.041181,3.06599349 Z M174.231157,0.392146343 L175.508319,0.392146343 L175.508319,13.1812204 L174.231157,13.1812204 L174.231157,0.392146343 Z M187.714545,13.1825633 L187.714545,0.393489309 L187.983138,0.393489309 L196.490834,10.1810323 L196.490834,0.393489309 L197.750537,0.393489309 L197.750537,13.1825633 L197.45777,13.1825633 L189.036025,3.51320148 L189.036025,13.1825633 L187.714545,13.1825633 Z M223.109781,10.5946661 L224.197585,9.93929822 C224.96218,11.3485182 225.844957,12.0526805 226.845915,12.0517852 C227.27008,12.0532751 227.688042,11.949938 228.062643,11.7509606 C228.420835,11.5698479 228.719931,11.2903183 228.924828,10.9451805 C229.119149,10.6206389 229.220866,10.2490716 229.218938,9.87080691 C229.209421,9.41676082 229.058748,8.97694703 228.787846,8.6124469 C228.384956,8.04302892 227.651248,7.46107659 226.586723,6.86658989 C225.517721,6.06080974 224.856086,5.4788574 224.601818,5.12073289 C224.161691,4.56287899 223.921885,3.87325821 223.920933,3.16268711 C223.913863,2.63038222 224.050744,2.10605583 224.317109,1.64513448 C224.585691,1.18732553 224.975646,0.812708615 225.443858,0.562703142 C225.928438,0.295042215 226.473638,0.156314444 227.027216,0.159813064 C227.618422,0.161149667 228.1985,0.32065973 228.707268,0.621793687 C229.231025,0.922618278 229.786118,1.47278706 230.372547,2.27230004 L229.329061,3.05793569 C228.850965,2.42495061 228.442255,2.00639259 228.102932,1.80226162 C227.767293,1.59918027 227.381898,1.49318504 226.989613,1.49606516 C226.523799,1.47828798 226.070221,1.64753364 225.72991,1.96610358 C225.409664,2.26281827 225.230913,2.68185917 225.238384,3.1183692 C225.239904,3.39589981 225.298412,3.67016046 225.410284,3.92414936 C225.56725,4.24448918 225.784262,4.53171157 226.049536,4.77021852 C226.216064,4.93674642 226.768471,5.36470522 227.706757,6.0540949 C228.810676,6.8706188 229.568557,7.54613116 229.9804,8.080632 C230.37935,8.58023648 230.596704,9.20057107 230.596822,9.83991867 C230.599952,10.7584375 230.216326,11.6358544 229.539907,12.2572591 C228.861014,12.9351261 227.936795,13.3095608 226.977526,13.2953726 C226.22432,13.3037858 225.485658,13.0877971 224.855638,12.6749219 C224.222653,12.2594974 223.640701,11.5665265 223.109781,10.596009 L223.109781,10.5946661 Z M242.287349,0.388117442 L243.572568,0.388117442 L243.572568,5.75595625 L250.087301,5.75595625 L250.087301,0.392146343 L251.364463,0.392146343 L251.364463,13.1812204 L250.087301,13.1812204 L250.087301,7.01565922 L243.572568,7.01565922 L243.572568,13.1812204 L242.287349,13.1812204 L242.287349,0.392146343 L242.287349,0.388117442 Z M263.545173,0.388117442 L264.820991,0.388117442 L264.820991,13.1812204 L263.545173,13.1812204 L263.545173,0.392146343 L263.545173,0.388117442 Z M277.01916,0.388117442 L284.068393,0.388117442 L284.068393,1.65184932 L278.293635,1.65184932 L278.293635,5.65254779 L281.719544,5.65254779 L281.719544,6.91225077 L278.293635,6.91225077 L278.293635,13.1812204 L277.017817,13.1812204 L277.017817,0.393489309 L277.01916,0.388117442 Z M294.487131,1.63036185 L294.487131,0.393489309 L301.512191,0.393489309 L301.512191,1.63439075 L298.648985,1.63439075 L298.648985,13.1839063 L297.346307,13.1839063 L297.346307,1.63439075 L294.487131,1.63036185 Z" id="Shape"></path>
                    <g id="Group-3" transform="translate(0.000000, 26.159926)">
                        <path d="M8.20698672,0.526169588 C8.24480098,0.5260161 8.28092768,0.541811932 8.3064915,0.569676488 C8.33205531,0.597541044 8.34468704,0.634891897 8.34128341,0.672552983 L8.34128341,7.22354565 C8.3442884,7.26098521 8.33147739,7.29797231 8.30595885,7.32553233 C8.28044031,7.35309235 8.24454649,7.36870648 8.20698672,7.36858608 L7.53550326,7.36858608 C7.4961168,7.37188604 7.45727653,7.3576684 7.42932852,7.32972039 C7.40138051,7.30177237 7.38716287,7.26293211 7.39046283,7.22354565 L7.39046283,2.51107471 L4.59977756,7.06910445 C4.5729156,7.13017952 4.51336716,7.17040083 4.44667933,7.17251291 L4.40370438,7.17251291 C4.33662909,7.17058788 4.27659291,7.13038974 4.24926319,7.06910445 L1.46797868,2.51107471 L1.46797868,7.22354565 C1.46797868,7.30364927 1.40304187,7.36858608 1.32293826,7.36858608 L0.651454792,7.36858608 C0.612068334,7.37188604 0.573228069,7.3576684 0.545280056,7.32972039 C0.517332044,7.30177237 0.503114408,7.26293211 0.506414364,7.22354565 L0.506414364,0.663152215 C0.506414364,0.588982199 0.566541042,0.528855522 0.640711057,0.528855522 L1.21415793,0.528855522 C1.28476533,0.524539753 1.35159441,0.561086908 1.3860577,0.622863207 L4.42384889,5.58378303 L7.46164008,0.622863207 C7.49201096,0.557782078 7.56095349,0.519782254 7.63219688,0.528855522 L8.20698672,0.526169588 Z M13.310261,0.526169588 L12.6508643,0.526169588 C12.5766943,0.526169588 12.5165676,0.586296265 12.5165676,0.660466281 L12.5165676,7.22085972 C12.5132104,7.26050088 12.5276016,7.29959037 12.5558618,7.32759132 C12.584122,7.35559226 12.6233424,7.36962252 12.662951,7.36590014 L13.3210048,7.36590014 C13.3585645,7.36602054 13.3944584,7.35040641 13.4199769,7.32284639 C13.4454954,7.29528637 13.4583065,7.25829928 13.4553015,7.22085972 L13.4553015,0.663152215 C13.4553015,0.588982199 13.3951748,0.528855522 13.3210048,0.528855522 L13.310261,0.526169588 Z M24.1023433,7.21548785 C24.1453182,7.30009477 24.1198018,7.36858608 24.0257941,7.36858608 L23.2468733,7.36858608 C23.1851004,7.37353089 23.1273388,7.33756612 23.1045188,7.27995026 L22.5673321,6.16797365 L18.8808879,6.16797365 L18.3584737,7.27995026 C18.3335373,7.33769233 18.2763245,7.3747747 18.2134333,7.37395795 L17.4264547,7.37395795 C17.3886377,7.3770383 17.3522984,7.35860555 17.3324446,7.32627228 C17.3125909,7.29393901 17.3125918,7.2531921 17.332447,7.22085972 L20.5528817,0.565115629 C20.568933,0.517690738 20.6143222,0.486519846 20.6643479,0.488566514 L20.7758142,0.488566514 C20.8187891,0.488566514 20.8523633,0.504682117 20.8872804,0.565115629 L24.0956284,7.21951675 L24.1023433,7.21548785 Z M19.3012365,5.28161547 L22.1510123,5.28161547 L20.7301533,2.25456802 L19.3012365,5.28161547 Z M35.6652885,0.526169588 C35.7031028,0.5260161 35.7392295,0.541811932 35.7647933,0.569676488 C35.7903571,0.597541044 35.8029888,0.634891897 35.7995852,0.672552983 L35.7995852,7.22354565 C35.8025902,7.26098521 35.7897792,7.29797231 35.7642606,7.32553233 C35.7387421,7.35309235 35.7028483,7.36870648 35.6652885,7.36858608 L34.993805,7.36858608 C34.9544186,7.37188604 34.9155783,7.3576684 34.8876303,7.32972039 C34.8596823,7.30177237 34.8454646,7.26293211 34.8487646,7.22354565 L34.8487646,2.51107471 L32.0594223,7.06910445 C32.0320926,7.13038974 31.9720564,7.17058788 31.9049811,7.17251291 L31.8620062,7.17251291 C31.7949309,7.17058788 31.7348947,7.13038974 31.707565,7.06910445 L28.9195656,2.51107471 L28.9195656,7.22354565 C28.9199279,7.26212267 28.9047632,7.29922512 28.8774839,7.3265044 C28.8502047,7.35378368 28.8131022,7.36894833 28.7745252,7.36858608 L28.1030417,7.36858608 C28.0634332,7.37230846 28.0242127,7.35827819 27.9959525,7.33027725 C27.9676923,7.3022763 27.9533012,7.26318682 27.9566583,7.22354565 L27.9566583,0.663152215 C27.9566583,0.588982199 28.016785,0.528855522 28.090955,0.528855522 L28.6724597,0.528855522 C28.7431411,0.524206519 28.8101368,0.560844798 28.8443595,0.622863207 L31.8821507,5.58378303 L34.9226278,0.620177273 C34.9541141,0.555481935 35.0230688,0.517772357 35.0945276,0.526169588 L35.6679744,0.526169588 L35.6652885,0.526169588 Z M40.7685628,0.526169588 L40.110509,0.526169588 C40.036339,0.526169588 39.9762123,0.586296265 39.9762123,0.660466281 L39.9762123,7.22085972 C39.9729124,7.26024617 39.98713,7.29908644 40.015078,7.32703445 C40.043026,7.35498246 40.0818663,7.3692001 40.1212528,7.36590014 L40.7806495,7.36590014 C40.8170299,7.36419908 40.8511594,7.34779523 40.8752138,7.32044911 C40.8992683,7.29310299 40.9111847,7.25715992 40.9082314,7.22085972 L40.9082314,0.663152215 C40.9082314,0.588982199 40.8481047,0.528855522 40.7739347,0.528855522 L40.7685628,0.526169588 Z M53.6503016,7.42901959 C55.5676404,7.41347576 57.1113885,5.85035367 57.1030195,3.9329701 C57.0946504,2.01558652 55.537316,0.46600005 53.6199146,0.467194103 C51.7025131,0.468388156 50.1471099,2.01991307 50.141129,3.93730558 C50.1360398,4.86795119 50.5046865,5.76170072 51.1644012,6.41813325 C51.8241159,7.07456578 52.7196929,7.43875037 53.6503016,7.42901959 Z M53.6503016,6.49700054 C52.6165838,6.50461762 51.6804095,5.88778388 51.2795337,4.93493079 C50.8786579,3.9820777 51.0922999,2.88150359 51.8205606,2.14783693 C52.5488212,1.41417027 53.6477853,1.1923948 54.603577,1.58621274 C55.5593687,1.98003067 56.1831091,2.91161757 56.1831372,3.94536338 C56.1744899,5.3436893 55.0485253,6.47801202 53.6503016,6.49700054 Z M66.8852406,6.14648618 C66.9537319,6.20557672 66.9550749,6.28078287 66.8771828,6.36001792 C66.2237535,7.05672988 65.3075112,7.44662022 64.352405,7.43439146 C62.7700483,7.42315922 61.3943639,6.34606739 61.0038245,4.81262093 C60.6132851,3.27917448 61.3061682,1.67525822 62.6903848,0.908496659 C64.0746015,0.141735097 65.8018199,0.405080285 66.8946414,1.54951039 C66.9711905,1.62740247 66.9711905,1.70395158 66.9026992,1.75498433 L66.3547687,2.19950638 C66.330156,2.22907004 66.2931776,2.24548296 66.254742,2.24390342 C66.2163064,2.24232387 66.1807994,2.22293209 66.1586955,2.19144858 C65.6972547,1.70277065 65.0592693,1.41932908 64.3873222,1.40446996 C62.8469391,1.40446996 61.8450858,2.68700337 61.8450858,3.97087975 C61.8410919,4.64535713 62.1079994,5.29321141 62.5859442,5.76913631 C63.0638889,6.24506121 63.7128677,6.50922271 64.3873222,6.50237241 C65.0472269,6.49011803 65.6752336,6.21621049 66.1331792,5.74091016 C66.1530648,5.7057091 66.1877507,5.68133979 66.2276089,5.6745665 C66.2674671,5.66779321 66.3082558,5.67933678 66.3386531,5.70599302 L66.8852406,6.15185804 L66.8852406,6.14648618 Z M75.8119418,0.526169588 C75.8861118,0.526169588 75.9462385,0.586296265 75.9462385,0.660466281 L75.9462385,1.31986304 C75.9462385,1.39403306 75.8861118,1.45415973 75.8119418,1.45415973 L73.7504876,1.45415973 L73.7504876,7.21817378 C73.7534926,7.25561334 73.7406815,7.29260044 73.715163,7.32016046 C73.6896445,7.34772048 73.6537506,7.36333461 73.6161909,7.36321421 L73.1192931,7.36321421 C73.0273866,7.37041203 72.937011,7.33653976 72.8724755,7.27070833 C72.80794,7.20487691 72.775871,7.11384585 72.7848943,7.02210061 L72.7848943,1.4595316 L70.7207542,1.4595316 C70.6830931,1.46293523 70.6457422,1.4503035 70.6178777,1.42473969 C70.5900131,1.39917587 70.5742173,1.36304917 70.5743708,1.32523491 L70.5743708,0.672552983 C70.5705879,0.632689721 70.5847905,0.593217752 70.6131047,0.564903533 C70.6414189,0.536589314 70.6808909,0.522386686 70.7207542,0.526169588 L75.8119418,0.526169588 Z M83.1982599,7.42901959 C85.1157807,7.41421415 86.660203,5.85141301 86.6523245,3.93385128 C86.6444461,2.01628955 85.0872342,0.466231778 83.1696565,0.467183228 C81.2520788,0.468134678 79.6964059,2.01973698 79.6904303,3.93730558 C79.685346,4.86771593 80.0538091,5.76125782 80.7132314,6.41765061 C81.3726537,7.0740434 82.2678828,7.43838809 83.1982599,7.42901959 Z M83.1982599,6.49700054 C82.1646597,6.50407271 81.2288953,5.88689027 80.8284436,4.93399054 C80.4279919,3.9810908 80.6419687,2.88073499 81.3703383,2.14734749 C82.0987079,1.41395999 83.1975687,1.19243373 84.1531953,1.58633385 C85.1088219,1.98023397 85.7324143,2.91173895 85.7324385,3.94536338 C85.7237782,5.34420472 84.5970088,6.47873671 83.1982599,6.49700054 Z M94.3166831,3.72511681 C95.0139645,4.02126749 95.4680736,4.70401514 95.4716346,5.46157304 C95.4716346,6.59100823 94.4791821,7.36858608 93.426296,7.36858608 L90.6624701,7.36858608 C90.6228615,7.37230846 90.5836411,7.35827819 90.5553809,7.33027725 C90.5271206,7.3022763 90.5127295,7.26318682 90.5160867,7.22354565 L90.5160867,0.663152215 C90.5160867,0.588982199 90.5762134,0.528855522 90.6503834,0.528855522 L93.2020205,0.528855522 C94.2898237,0.528855522 95.1023187,1.47833314 95.1023187,2.33380307 C95.1034719,2.90455383 94.8046178,3.43392336 94.3153401,3.72780274 L94.3166831,3.72511681 Z M93.0153481,3.44309375 C94.4362071,3.44309375 94.4617235,1.4595316 93.0328067,1.4595316 L91.4843658,1.4595316 L91.4843658,3.44309375 L93.0153481,3.44309375 Z M93.2033635,6.43656703 C94.8807292,6.43656703 94.89013,4.34959643 93.1872479,4.34959643 L91.4830229,4.34959643 L91.4924236,6.43656703 L93.2033635,6.43656703 Z M103.773856,1.45818864 L100.37615,1.45818864 L100.37615,3.54515924 L102.339567,3.54515924 C102.379209,3.54180206 102.418298,3.5561932 102.446299,3.58445342 C102.4743,3.61271363 102.48833,3.65193409 102.484608,3.69154263 L102.484608,4.33213786 C102.48833,4.3717464 102.4743,4.41096686 102.446299,4.43922707 C102.418298,4.46748729 102.379209,4.48187843 102.339567,4.47852125 L100.370778,4.47852125 L100.378836,6.43656703 L103.768484,6.43656703 C103.807871,6.43326707 103.846711,6.44748471 103.874659,6.47543272 C103.902607,6.50338074 103.916825,6.542221 103.913525,6.58160746 L103.913525,7.22354565 C103.916825,7.26293211 103.902607,7.30177237 103.874659,7.32972039 C103.846711,7.3576684 103.807871,7.37188604 103.768484,7.36858608 L99.5488822,7.36858608 C99.5094958,7.37188604 99.4706555,7.3576684 99.4427075,7.32972039 C99.4147595,7.30177237 99.4005418,7.26293211 99.4038418,7.22354565 L99.4038418,0.663152215 C99.4038418,0.588982199 99.4639685,0.528855522 99.5381385,0.528855522 L103.765798,0.528855522 C103.803238,0.525850532 103.840225,0.53866155 103.867785,0.564180088 C103.895345,0.589698627 103.910959,0.625592448 103.910839,0.663152215 L103.910839,1.32254898 C103.910959,1.36010874 103.895345,1.39600256 103.867785,1.4215211 C103.840225,1.44703964 103.803238,1.45985066 103.765798,1.45684567 L103.773856,1.45818864 Z M112.939605,7.20608708 C113.000039,7.29203696 112.957064,7.36858608 112.845598,7.36858608 L112.211717,7.36858608 C112.043367,7.34549853 111.894889,7.24651337 111.808827,7.09999269 L110.46586,5.13388911 L108.772379,5.13388911 L108.772379,7.22891752 C108.775384,7.26635708 108.762573,7.30334417 108.737055,7.33090419 C108.711536,7.35846422 108.675642,7.37407835 108.638082,7.37395795 L107.945111,7.37395795 C107.907552,7.37407835 107.871658,7.35846422 107.846139,7.33090419 C107.820621,7.30334417 107.80781,7.26635708 107.810815,7.22891752 L107.810815,0.663152215 C107.810815,0.588982199 107.870941,0.528855522 107.945111,0.528855522 L110.580013,0.528855522 C112.077421,0.528855522 112.881858,1.80333114 112.881858,2.82935787 C112.881858,3.6848278 112.368845,4.64370618 111.404594,4.99422055 L112.944977,7.20877301 L112.939605,7.20608708 Z M108.776408,1.45818864 L108.776408,4.19112633 L110.471232,4.19112633 C111.438168,4.19112633 111.917608,3.49949836 111.917608,2.80652743 C111.917608,2.1135565 111.428768,1.45415973 110.471232,1.45415973 L108.776408,1.45818864 Z M123.549044,0.786705172 C123.625656,0.785137407 123.689763,0.844495553 123.694085,0.921001865 L123.694085,7.22488862 C123.697385,7.26427508 123.683167,7.30311534 123.655219,7.33106335 C123.627271,7.35901137 123.588431,7.373229 123.549044,7.36992905 L122.877561,7.36992905 C122.838174,7.373229 122.799334,7.35901137 122.771386,7.33106335 C122.743438,7.30311534 122.72922,7.26427508 122.73252,7.22488862 L122.73252,2.33111714 L121.92674,2.52853328 C121.892242,2.54033614 121.854211,2.53535713 121.823914,2.51507116 C121.793617,2.49478519 121.774527,2.46151823 121.772299,2.42512482 L121.69575,1.93762783 C121.686349,1.85302091 121.703808,1.81004597 121.805873,1.7845296 C122.226222,1.6381462 122.584794,1.20302492 122.815784,0.868626154 L122.825185,0.843109783 C122.852841,0.800435106 122.902228,0.777041223 122.952767,0.782676271 L123.549044,0.786705172 Z M138.187384,5.52603546 C138.187384,5.60020547 138.127257,5.66033215 138.053087,5.66033215 L135.459818,5.66033215 C135.422378,5.66333714 135.385391,5.65052612 135.357831,5.62500758 C135.330271,5.59948904 135.314657,5.56359522 135.314777,5.52603546 L135.314777,4.95661748 C135.314657,4.91905771 135.330271,4.88316389 135.357831,4.85764535 C135.385391,4.83212681 135.422378,4.8193158 135.459818,4.82232079 L138.053087,4.82232079 C138.089388,4.8199193 138.12496,4.83329532 138.150684,4.85901996 C138.176409,4.88474461 138.189785,4.92031668 138.187384,4.95661748 L138.187384,5.52200655 L138.187384,5.52603546 Z M143.536421,0.786705172 C143.613033,0.785137407 143.67714,0.844495553 143.681461,0.921001865 L143.681461,7.22488862 C143.684761,7.26427508 143.670544,7.30311534 143.642596,7.33106335 C143.614648,7.35901137 143.575807,7.373229 143.536421,7.36992905 L142.864937,7.36992905 C142.825329,7.37365143 142.786108,7.35962116 142.757848,7.33162022 C142.729588,7.30361927 142.715197,7.26452978 142.718554,7.22488862 L142.718554,2.33111714 L141.912774,2.52853328 C141.878276,2.54033614 141.840245,2.53535713 141.809948,2.51507116 C141.77965,2.49478519 141.760561,2.46151823 141.758333,2.42512482 L141.681784,1.93762783 C141.673726,1.85302091 141.689841,1.81004597 141.79325,1.7845296 C142.212256,1.6381462 142.572171,1.20302492 142.803161,0.868626154 L142.811219,0.843109783 C142.839963,0.79802835 142.892711,0.774291891 142.945515,0.782676271 L143.536421,0.786705172 Z M164.599514,6.44059593 C164.685464,6.44059593 164.733811,6.48357087 164.733811,6.57489262 L164.733811,7.23294642 C164.733811,7.3108385 164.563254,7.36724311 164.485362,7.36724311 L160.651191,7.36724311 C160.575605,7.36618101 160.513016,7.30822815 160.506151,7.23294642 L160.506151,7.00195611 L163.030929,4.0339992 C163.433819,3.58141935 163.766875,3.13689729 163.766875,2.60642536 C163.766875,2.02492068 163.229688,1.57099786 162.558204,1.57099786 C161.886721,1.57099786 161.446228,1.95642936 161.080941,2.38349285 C161.058588,2.41554358 161.02198,2.43464419 160.982904,2.43464419 C160.943829,2.43464419 160.907221,2.41554358 160.884868,2.38349285 L160.491378,1.96448717 C160.437048,1.90809327 160.433023,1.8201326 160.481978,1.75901323 C160.960771,1.05833814 161.756587,0.641554363 162.605208,0.647036612 C163.699726,0.647036612 164.719038,1.45281677 164.719038,2.59836756 C164.701727,3.16287079 164.483085,3.70256776 164.102616,4.11994908 L162.101596,6.43656703 L164.599514,6.44059593 Z M170.959806,7.47602343 C169.127999,7.47602343 168.400111,5.93564037 168.400111,4.10517645 C168.400111,2.27471253 169.127999,0.702098256 170.959806,0.702098256 C172.791612,0.702098256 173.511443,2.26665472 173.511443,4.10517645 C173.511443,5.94369817 172.775497,7.47602343 170.959806,7.47602343 Z M170.967863,6.53594658 C172.226223,6.53594658 172.559279,5.37293723 172.559279,4.09846161 C172.559279,2.823986 172.226223,1.62740247 170.967863,1.62740247 C169.709503,1.62740247 169.367047,2.8078704 169.367047,4.09846161 C169.367047,5.38905283 169.709503,6.53594658 170.967863,6.53594658 Z M178.953145,0.779990337 C179.029757,0.778422572 179.093864,0.837780719 179.098185,0.91428703 L179.098185,7.21817378 C179.101485,7.25756024 179.087267,7.29640051 179.059319,7.32434852 C179.031371,7.35229653 178.992531,7.36651417 178.953145,7.36321421 L178.281661,7.36321421 C178.242053,7.36693659 178.202832,7.35290633 178.174572,7.32490538 C178.146312,7.29690444 178.131921,7.25781495 178.135278,7.21817378 L178.135278,2.33111714 L177.329498,2.52853328 C177.294999,2.54033614 177.256969,2.53535713 177.226672,2.51507116 C177.196374,2.49478519 177.177284,2.46151823 177.175057,2.42512482 L177.098507,1.93762783 C177.089107,1.85302091 177.106565,1.81004597 177.209974,1.7845296 C177.628979,1.6381462 177.988894,1.20302492 178.219885,0.868626154 L178.227943,0.843109783 C178.256687,0.79802835 178.309435,0.774291891 178.362239,0.782676271 L178.953145,0.779990337 Z M184.028217,3.95342118 C183.625327,4.04742887 182.796716,4.63833432 182.796716,5.5649815 C182.796716,6.6165246 183.602496,7.44513519 184.961579,7.44513519 C186.320661,7.44513519 187.135842,6.61518163 187.135842,5.5649815 C187.135842,4.62490465 186.382438,4.08771788 185.902999,3.95342118 L185.936573,3.92790481 C186.390496,3.74794724 186.972,3.29536739 186.972,2.50033097 C186.972,1.46490347 186.11653,0.695383421 184.95755,0.695383421 C183.798569,0.695383421 182.963244,1.46490347 182.963244,2.50033097 C182.974058,3.14401548 183.38369,3.71321694 183.990614,3.92790481 L184.024188,3.95342118 L184.028217,3.95342118 Z M186.099072,2.4828724 C186.099072,2.9784272 185.620976,3.47532496 184.961579,3.47532496 C184.302182,3.47532496 183.832144,2.98782796 183.832144,2.4828724 C183.832144,1.94568563 184.327698,1.49041984 184.961579,1.49041984 C185.595459,1.49041984 186.099072,1.94434266 186.099072,2.4828724 Z M184.961579,6.64606987 C184.276666,6.64606987 183.703219,6.20960562 183.703219,5.55155183 C183.703219,4.97004715 184.165199,4.40600104 184.961579,4.40600104 C185.757958,4.40600104 186.219939,4.97004715 186.219939,5.55155183 C186.219939,6.20960562 185.662607,6.64606987 184.961579,6.64606987 Z" id="Shape"></path>
                        <path d="M129.882476,0.825651213 C129.959088,0.824083448 130.023195,0.883441594 130.027517,0.959947905 L130.027517,7.26652059 C130.030817,7.30590705 130.016599,7.34474732 129.988651,7.37269533 C129.960703,7.40064334 129.921863,7.41486098 129.882476,7.41156102 L129.210993,7.41156102 C129.171384,7.4152834 129.132164,7.40125314 129.103904,7.37325219 C129.075643,7.34525125 129.061252,7.30616176 129.064609,7.26652059 L129.064609,2.37409208 L128.258829,2.57016525 C128.224536,2.58251579 128.186425,2.57795342 128.156017,2.55785722 C128.125608,2.53776102 128.10647,2.5044895 128.104388,2.46809976 L128.027839,1.98060277 C128.018438,1.89465289 128.035897,1.84630608 128.139305,1.82616157 C128.558311,1.68112114 128.916883,1.24465689 129.149216,0.911601096 L129.157274,0.886084724 C129.186019,0.841003291 129.238766,0.817266833 129.291571,0.825651213 L129.882476,0.825651213 Z" id="Shape"></path>
                        <path d="M151.492157,6.43656703 C151.578107,6.43656703 151.626454,6.47954197 151.626454,6.57086372 L151.626454,7.22891752 C151.626454,7.3068096 151.454554,7.36321421 151.378005,7.36321421 L147.543834,7.36321421 C147.468248,7.36215211 147.405659,7.30419924 147.398794,7.22891752 L147.398794,6.99792721 L149.923572,4.0299703 C150.326462,3.57739044 150.659518,3.13286839 150.659518,2.60239646 C150.659518,2.02089178 150.122331,1.56696896 149.450847,1.56696896 C148.779364,1.56696896 148.338871,1.95240046 147.973584,2.37946395 C147.951231,2.41151468 147.914623,2.43061529 147.875547,2.43061529 C147.836472,2.43061529 147.799863,2.41151468 147.77751,2.37946395 L147.384021,1.96045827 C147.32969,1.90406437 147.325666,1.81610369 147.37462,1.75498433 C147.853414,1.05430924 148.649229,0.637525463 149.497851,0.643007711 C150.592369,0.643007711 151.610338,1.44878787 151.610338,2.59433865 C151.593514,3.15869299 151.375341,3.69840804 150.995259,4.11592018 L148.992896,6.4338811 L151.492157,6.43656703 Z" id="Shape"></path>
                    </g>
                </g>
            </g>
        </g>
    </g>
</svg>