<?xml version="1.0" encoding="UTF-8"?>
<svg width="682px" height="42px" viewBox="0 0 682 42" version="1.1" xmlns="http://www.w3.org/2000/svg" xmlns:xlink="http://www.w3.org/1999/xlink">
    <!-- Generator: sketchtool 50.2 (55047) - http://www.bohemiancoding.com/sketch -->
    <title>0A1DBA9E-3AA9-4A27-9357-941D6F81BCCC</title>
    <desc>Created with sketchtool.</desc>
    <defs></defs>
    <g id="Page-1" stroke="none" stroke-width="1" fill="none" fill-rule="evenodd">
        <g id="Foundation" transform="translate(-379.000000, -266.000000)" fill="#000000" fill-rule="nonzero">
            <g id="Logo-Black" transform="translate(379.000000, 266.224999)">
                <path d="M0,0.607316525 L8.27772423,0.607316525 L8.27772423,2.08613226 L1.50007182,2.08613226 L1.50007182,6.78979875 L5.52050721,6.78979875 L5.52050721,8.26861448 L1.50007182,8.26861448 L1.50007182,15.6384005 L0,15.6384005 L0,0.607316525 Z M22.2156385,0.567840951 L23.7339298,0.567840951 L23.7339298,14.1474384 L29.5034368,14.1474384 L29.5034368,15.5958884 L22.2156385,15.5958884 L22.2156385,0.567840951 Z M50.1521986,0.343133836 C52.2846868,0.288065679 54.3459041,1.11277222 55.8518642,2.62360739 C57.3604385,4.09703696 58.1905602,6.13001051 58.1444841,8.23824866 C58.2094455,10.2944377 57.373162,12.2764518 55.8549008,13.6646218 C54.3435339,15.0749484 52.340297,15.8378787 50.2736619,15.7902296 C48.1575261,15.8291327 46.1188688,14.9943377 44.6377646,13.4824268 C43.1053025,11.9621111 42.3390715,10.241381 42.3390715,8.32023639 C42.3298267,6.91413198 42.6889176,5.53011422 43.3806194,4.30587416 C44.0508538,3.09597917 45.0388986,2.09218446 46.2380436,1.40290117 C47.4242454,0.705332935 48.7760948,0.339316304 50.1521986,0.343133836 Z M50.2129303,1.82498616 C47.9457857,1.84349571 45.8589554,3.06437815 44.7318986,5.03161741 C44.1745123,6.03387151 43.8887409,7.16439563 43.9029116,8.31112664 C43.8453284,9.95934547 44.5228378,11.547988 45.7521904,12.6473666 C47.8853566,14.5199404 50.9671375,14.8447866 53.4438542,13.4581342 C54.4145598,12.9139601 55.2170866,12.1135341 55.7638033,11.1442582 C56.2911378,10.2652922 56.578073,9.26311344 56.5958269,8.23824866 C56.6101276,7.10652048 56.3229573,5.99137755 55.7638033,5.00732475 C55.2088368,4.03735669 54.4006304,3.23649762 53.4256347,2.6904122 C52.4504842,2.12165387 51.3418255,1.82195974 50.2129303,1.82194957 L50.2129303,1.82498616 Z M72.3374713,0.610353107 L75.3254686,0.610353107 C76.9935646,0.610353107 78.1251977,0.678170119 78.7203679,0.813804143 C79.5731497,0.993358427 80.3403254,1.45558982 80.8975977,2.12560784 C81.4668689,2.82350972 81.765498,3.70322576 81.7387311,4.60345926 C81.754814,5.36325227 81.5547314,6.11198233 81.1617804,6.7624695 C80.7634051,7.38674236 80.1854064,7.87581818 79.5038062,8.16537067 C78.9212216,8.45326036 78.2854242,8.61763724 77.6363079,8.64818731 L81.9391455,15.6323273 L80.0959399,15.6323273 L75.7900657,8.64818731 L73.8375431,8.64818731 L73.8375431,15.6323273 L72.3374713,15.6323273 L72.3374713,0.607316525 L72.3374713,0.610353107 Z M73.8375431,2.0800591 L73.8375431,7.18455449 L76.4186383,7.20581056 C77.170562,7.24154209 77.922918,7.14492806 78.6414168,6.9203718 C79.1065389,6.7482253 79.5023132,6.42819219 79.7679889,6.00939701 C80.0344422,5.58826418 80.1726533,5.09872279 80.1657813,4.60042267 C80.1702076,4.11260354 80.026177,3.63497267 79.752806,3.23092391 C79.4957078,2.83289055 79.122606,2.52338564 78.6839289,2.34424179 C78.246661,2.1660956 77.5107958,2.07702251 76.4763334,2.07702251 L73.8375431,2.0800591 Z M95.8375842,0.607316525 L97.337656,0.607316525 L97.337656,15.6384005 L95.8375842,15.6384005 L95.8375842,0.607316525 Z M111.882887,15.5989249 L111.882887,0.567840951 L114.992347,0.567840951 C117.243467,0.567840951 118.878161,0.750035908 119.896428,1.11442582 C121.301086,1.58535977 122.503691,2.52024315 123.306511,3.76536245 C124.151478,5.11348331 124.579324,6.68119468 124.536327,8.27165107 C124.564982,9.65850858 124.227736,11.0284373 123.558547,12.2435011 C122.979623,13.3182767 122.099423,14.2005876 121.026037,14.7820842 C119.98955,15.3246203 118.536039,15.5969005 116.665504,15.5989249 L111.882887,15.5989249 Z M113.322227,14.1686945 L115.053079,14.1686945 C117.128077,14.1686945 118.570454,14.0401459 119.380209,13.7830485 C120.468256,13.4471813 121.408227,12.7483656 122.043292,11.8031967 C122.71733,10.758329 123.05634,9.53259602 123.014999,8.28987056 C123.053617,6.97207265 122.688042,5.6740158 121.967378,4.57005685 C121.269408,3.54297523 120.230163,2.79635396 119.034039,2.46266851 C118.088649,2.17115658 116.53898,2.02540061 114.385031,2.02540061 L113.322227,2.02540061 L113.322227,14.1717311 L113.322227,14.1686945 Z M144.693162,0.567840951 L151.692485,15.5958884 L150.092206,15.5958884 L147.732781,10.6280392 L141.249677,10.6280392 L138.908472,15.583742 L137.229242,15.583742 L144.328772,0.567840951 L144.693162,0.567840951 Z M144.510967,3.75017954 L141.917725,9.21602826 L147.064733,9.21602826 L144.510967,3.75017954 Z M181.566385,0.567840951 L186.336856,0.567840951 C187.527196,0.567840951 188.441208,0.707523751 189.06978,0.992962518 C189.697506,1.26268588 190.227423,1.71841508 190.588072,2.29869305 C190.958366,2.88234289 191.153343,3.56001915 191.14984,4.25121567 C191.156657,4.89223011 190.986432,5.52269153 190.657913,6.07316525 C190.308919,6.64022983 189.809668,7.09954044 189.215536,7.40015185 C189.875119,7.59888106 190.492654,7.91691156 191.037486,8.33845588 C191.455821,8.69204286 191.790761,9.13379031 192.018302,9.63204008 C192.257867,10.1494796 192.379229,10.7137631 192.373582,11.283941 C192.391914,12.4484465 191.908512,13.5645848 191.046596,14.3478529 C190.163962,15.1839253 188.982732,15.6009493 187.502904,15.5989249 L181.566385,15.5989323 L181.566385,0.567840951 Z M183.036091,2.03754694 L183.036091,6.8505304 L185.699174,6.8505304 C186.476326,6.88580876 187.253578,6.78299773 187.99483,6.54687214 C188.465634,6.36768839 188.871111,6.0500822 189.157841,5.63589735 C189.441535,5.23014517 189.592207,4.74629847 189.589036,4.25121567 C189.621709,3.62640216 189.357119,3.02291202 188.875439,2.62360739 C188.395659,2.23290042 187.632465,2.03754694 186.585856,2.03754694 L183.036091,2.03754694 Z M183.036091,8.35971196 L183.036091,14.1292189 L186.701246,14.1292189 C187.798465,14.1292189 188.601135,14.0209142 189.109256,13.8043046 C189.608538,13.5965312 190.036063,13.2471221 190.339072,12.7991958 C191.022744,11.8059425 190.945212,10.4753963 190.150804,9.56827185 C189.675388,9.04442257 189.045933,8.68503746 188.353147,8.54190692 C187.473875,8.3914702 186.581632,8.33042738 185.690064,8.35971196 L183.036091,8.35971196 Z M206.18396,0.567840951 L207.702251,0.567840951 L207.702251,14.1474384 L213.471758,14.1474384 L213.471758,15.5958884 L206.18396,15.5958884 L206.18396,0.567840951 Z M234.12052,0.343133836 C236.252222,0.28746188 238.31273,1.1123241 239.817149,2.62360739 C241.329322,4.09484351 242.161032,6.12901296 242.112806,8.23824866 C242.177767,10.2944377 241.341484,12.2764518 239.823222,13.6646218 C238.311681,15.074669 236.308563,15.8375543 234.241984,15.7902296 C232.126834,15.8367533 230.085979,15.0096469 228.600013,13.5036829 C227.065527,11.9833672 226.298283,10.2626371 226.298283,8.34149247 C226.290106,6.935132 226.650239,5.55113255 227.342868,4.32713024 C228.013102,3.11723525 229.001147,2.11344054 230.200292,1.42415725 C231.386036,0.717817901 232.740338,0.344362049 234.12052,0.343133836 Z M234.181252,1.82194957 C231.914107,1.84045913 229.827277,3.06134157 228.70022,5.02858082 C228.141908,6.03059771 227.855094,7.1611032 227.868197,8.30809006 C227.810613,9.95630889 228.488123,11.5449515 229.717475,12.64433 C231.851987,14.5165522 234.934331,14.8413295 237.412176,13.4550976 C238.382881,12.9109235 239.185408,12.1104975 239.732125,11.1412216 C240.257345,10.2615046 240.543145,9.25963133 240.561112,8.23521207 C240.576337,7.10376169 240.29022,5.98863668 239.732125,5.00428816 C239.176817,4.03354345 238.367403,3.23252822 237.39092,2.68737562 C236.416815,2.11911387 235.308993,1.82041061 234.181252,1.82194957 Z M270.222451,3.48296027 L269.04122,4.37875214 C268.428262,3.55415254 267.623652,2.89128713 266.696979,2.44748559 C265.755066,2.00518436 264.725203,1.78197821 263.684689,1.79462033 C262.515249,1.78376082 261.363448,2.08008776 260.344448,2.65397321 C259.357711,3.19699973 258.536968,3.99780165 257.96984,4.97088575 C257.396964,5.96769433 257.104235,7.1008403 257.122634,8.25039499 C257.122634,10.0723446 257.751206,11.5471115 259.008351,12.6746959 C260.265497,13.8022802 261.848568,14.3610114 263.757567,14.3508895 C265.80506,14.3827507 267.753463,13.4712562 269.04122,11.8791112 L270.237634,12.790086 C269.491159,13.7385366 268.529294,14.4953282 267.431832,14.9976816 C266.255512,15.5306386 264.975971,15.7971232 263.684689,15.7780833 C261.052984,15.7780833 258.975961,14.9035475 257.453621,13.1544759 C256.220313,11.770585 255.542197,9.97957977 255.549684,8.1258951 C255.507228,6.0318769 256.3469,4.01644333 257.86356,2.57198548 C259.396022,1.05976734 261.321215,0.303658262 263.63914,0.303658262 C264.95393,0.284285329 266.255296,0.570128533 267.440941,1.13871848 C268.549557,1.67662529 269.505814,2.48359801 270.222451,3.48599685 L270.222451,3.48296027 Z M284.12089,0.643755516 L285.639181,0.643755516 L285.639181,6.44362833 L292.255895,0.646792099 L294.524222,0.646792099 L288.964239,5.76950698 L295.079916,15.6718029 L293.106138,15.6718029 L287.494533,6.92644496 L285.651327,8.54798008 L285.651327,15.6778761 L284.133036,15.6778761 L284.133036,0.646792099 L284.12089,0.643755516 Z M322.078173,3.48296027 L320.884796,4.37571556 C320.270352,3.55209651 319.464762,2.89032447 318.537517,2.44748559 C317.588207,2.00158117 316.549626,1.77828637 315.500935,1.79462033 C314.331495,1.78376082 313.179694,2.08008776 312.160694,2.65397321 C311.174596,3.1978601 310.354058,3.99846098 309.786086,4.97088575 C309.21427,5.96799502 308.922594,7.10112243 308.941916,8.25039499 C308.941916,10.0723446 309.569476,11.5471115 310.824597,12.6746959 C312.079718,13.8022802 313.663802,14.3610114 315.576849,14.3508895 C317.621638,14.3781546 319.56628,13.4673726 320.85443,11.8791112 L322.047807,12.790086 C321.301332,13.7385366 320.339467,14.4953282 319.242004,14.9976816 C318.066924,15.5269163 316.789519,15.7902773 315.500935,15.7689736 C312.86923,15.7689736 310.792207,14.8944378 309.269867,13.1453662 C308.036559,11.7614753 307.358443,9.97047002 307.36593,8.11678535 C307.323474,6.02276715 308.163146,4.00733358 309.679806,2.56287573 C311.234536,1.05673075 313.168839,0.303658262 315.482715,0.303658262 C316.798528,0.283814347 318.100987,0.569669281 319.287553,1.13871848 C320.394779,1.67748221 321.349856,2.48433958 322.066026,3.48599685 L322.078173,3.48296027 Z M336.149696,0.607316525 L337.667988,0.607316525 L337.667988,6.91126205 L345.314103,6.91126205 L345.314103,0.607316525 L346.814175,0.607316525 L346.814175,15.6384005 L345.314103,15.6384005 L345.314103,8.39007779 L337.667988,8.39007779 L337.667988,15.6384005 L336.149696,15.6384005 L336.149696,0.607316525 Z M367.702826,0.567840951 L374.686966,15.5958884 L373.086687,15.5958884 L370.739409,10.6280392 L364.256305,10.6280392 L361.918137,15.583742 L360.23587,15.583742 L367.338437,0.567840951 L367.702826,0.567840951 Z M367.520631,3.75017954 L364.92739,9.21602826 L370.071361,9.21602826 L367.520631,3.75017954 Z M387.929503,0.607316525 L389.429575,0.607316525 L389.429575,15.6384005 L387.929503,15.6384005 L387.929503,0.607316525 Z M403.986952,15.6384005 L403.986952,0.607316525 L404.311867,0.607316525 L414.299187,12.1129281 L414.299187,0.607316525 L415.778003,0.607316525 L415.778003,15.6384005 L415.434869,15.6384005 L405.547756,4.27550833 L405.547756,15.6384005 L403.986952,15.6384005 Z M447.230925,0.607316525 L455.505613,0.607316525 L455.505613,2.08613226 L448.730997,2.08613226 L448.730997,6.78979875 L452.754469,6.78979875 L452.754469,8.26861448 L448.734034,8.26861448 L448.734034,15.6384005 L447.233962,15.6384005 L447.233962,0.607316525 L447.230925,0.607316525 Z M476.615935,0.343133836 C478.748553,0.287343342 480.810045,1.11215996 482.315601,2.62360739 C483.827773,4.09484351 484.659483,6.12901296 484.611257,8.23824866 C484.674583,10.2941331 483.838576,12.2754923 482.321674,13.6646218 C480.808854,15.0745739 478.804853,15.83738 476.737399,15.7902296 C474.622448,15.8356695 472.582006,15.0087303 471.095428,13.5036829 C469.560942,11.9833672 468.794711,10.2626371 468.796735,8.34149247 C468.788558,6.935132 469.148691,5.55113255 469.84132,4.32713024 C470.510724,3.11763338 471.49768,2.11387788 472.695707,1.42415725 C473.88157,0.718096283 475.235794,0.344661933 476.615935,0.343133836 Z M476.676667,1.82498616 C475.566507,1.82597032 474.47695,2.12483831 473.521658,2.6904122 C472.548395,3.24447403 471.745113,4.05405569 471.198672,5.03161741 C470.638902,6.0330541 470.351988,7.16395478 470.366648,8.31112664 C470.309065,9.95934547 470.986575,11.547988 472.215927,12.6473666 C474.350439,14.5195887 477.432782,14.844366 479.910628,13.4581342 C480.880295,12.9125881 481.682491,12.1124921 482.230577,11.1442582 C482.755796,10.2645412 483.041597,9.26266791 483.059564,8.23824866 C483.074789,7.10679828 482.788671,5.99167326 482.230577,5.00732475 C481.673564,4.03789143 480.864562,3.23728358 479.889371,2.6904122 C478.914675,2.12056766 477.805717,1.82079248 476.676667,1.82194957 L476.676667,1.82498616 Z M498.770842,0.364389915 L500.270914,0.364389915 L500.270914,9.43466221 C500.253923,10.1075508 500.277245,10.780853 500.340755,11.4509531 C500.392244,11.9799363 500.569218,12.488997 500.856974,12.935842 C501.17716,13.3732699 501.609347,13.7162923 502.108046,13.9288045 C502.639669,14.1886277 503.222901,14.3256146 503.814606,14.3296334 C504.494401,14.4506916 505.193371,14.4058992 505.852153,14.1990603 C506.717579,13.983463 507.300603,13.6585486 507.604261,13.2303905 C507.914118,12.7905396 508.140557,12.2975203 508.272309,11.7758674 C508.41505,11.0041424 508.470058,10.2187501 508.436285,9.43466221 L508.436285,0.364389915 L509.93332,0.364389915 L509.93332,9.43466221 C509.965621,10.5343858 509.832551,11.6327234 509.538564,12.6929154 C509.250743,13.5590703 508.699808,14.3138204 507.962578,14.8519256 C507.177115,15.4592421 505.821787,15.7629004 503.896594,15.7629004 C502.793652,15.7957381 501.706885,15.49174 500.78106,14.8914012 C499.954437,14.354449 499.342855,13.5440219 499.053244,12.6018179 C498.864976,12.0066477 498.770842,10.9489047 498.770842,9.42858905 L498.770842,0.364389915 Z M524.530173,15.6384005 L524.530173,0.607316525 L524.855087,0.607316525 L534.842407,12.1129281 L534.842407,0.607316525 L536.321223,0.607316525 L536.321223,15.6384005 L535.978089,15.6384005 L526.090976,4.27550833 L526.090976,15.6384005 L524.530173,15.6384005 Z M551.082051,15.5989249 L551.082051,0.567840951 L554.191512,0.567840951 C556.438583,0.567840951 558.073276,0.750035908 559.095593,1.11442582 C560.499826,1.5846629 561.701674,2.51979023 562.502638,3.76536245 C563.342277,5.11514386 563.764809,6.68273865 563.717271,8.27165107 C563.745927,9.65850858 563.408681,11.0284373 562.739492,12.2435011 C562.162298,13.3195614 561.281656,14.2023146 560.206982,14.7820842 C559.170495,15.3246203 557.716984,15.5969005 555.846449,15.5989249 L551.082051,15.5989249 Z M552.521391,14.1686945 L554.252243,14.1686945 C556.325217,14.1686945 557.766582,14.0401459 558.576337,13.7830485 C559.665164,13.4471297 560.606086,12.7484042 561.242457,11.8031967 C561.915073,10.7576922 562.253957,9.53241167 562.214163,8.28987056 C562.250982,6.97143071 561.883273,5.67332181 561.160469,4.57005685 C560.462499,3.54297523 559.423254,2.79635396 558.22713,2.46266851 C557.283765,2.17115658 555.734096,2.02540061 553.578122,2.02540061 L552.515318,2.02540061 L552.515318,14.1717311 L552.521391,14.1686945 Z M583.892326,0.567840951 L590.891649,15.5958884 L589.29137,15.5958884 L586.931945,10.6280392 L580.448842,10.6280392 L578.107636,15.583742 L576.42537,15.583742 L583.527936,0.567840951 L583.892326,0.567840951 Z M583.710131,3.75017954 L581.11689,9.21602826 L586.260861,9.21602826 L583.710131,3.75017954 Z M602.840602,2.06791277 L602.840602,0.607316525 L611.084924,0.607316525 L611.084924,2.06791277 L607.723427,2.06791277 L607.723427,15.6384005 L606.205135,15.6384005 L606.205135,2.06791277 L602.840602,2.06791277 Z M624.148302,0.607316525 L625.648374,0.607316525 L625.648374,15.6384005 L624.148302,15.6384005 L624.148302,0.607316525 Z M647.366013,0.343133836 C649.49765,0.287823479 651.55802,1.11263054 653.062642,2.62360739 C654.574814,4.09484351 655.406524,6.12901296 655.358298,8.23824866 C655.42326,10.2944377 654.586976,12.2764518 653.068715,13.6646218 C651.557174,15.074669 649.554055,15.8375543 647.487476,15.7902296 C645.372326,15.8367533 643.331472,15.0096469 641.845506,13.5036829 C640.311019,11.9833672 639.543776,10.2626371 639.543776,8.34149247 C639.535598,6.935132 639.895731,5.55113255 640.58836,4.32713024 C641.255812,3.10526647 642.24643,2.09048733 643.451858,1.39379142 C644.638846,0.699132642 645.990715,0.336256876 647.366013,0.343133836 Z M647.426745,1.82498616 C645.15525,1.83918629 643.062802,3.06064843 641.933567,5.03161741 C641.375254,6.03363429 641.088441,7.16413979 641.101543,8.31112664 C641.04396,9.95934547 641.721469,11.547988 642.950822,12.6473666 C645.085333,14.5195887 648.167677,14.844366 650.645522,13.4581342 C651.615189,12.9125881 652.417385,12.1124921 652.965471,11.1442582 C653.490691,10.2645412 653.776492,9.26266791 653.794458,8.23824866 C653.809684,7.10679828 653.523566,5.99167326 652.965471,5.00732475 C652.409308,4.03723794 651.600101,3.2364275 650.624266,2.6904122 C649.654017,2.12316626 648.550644,1.82348473 647.426745,1.82194957 L647.426745,1.82498616 Z M669.478408,15.6384005 L669.478408,0.607316525 L669.803322,0.607316525 L679.790642,12.1129281 L679.790642,0.607316525 L681.269458,0.607316525 L681.269458,15.6384005 L680.926324,15.6384005 L671.039211,4.27550833 L671.039211,15.6384005 L669.478408,15.6384005 Z" id="Shape"></path>
                <path d="M152.776545,39.5302326 C152.776545,40.8572192 151.832168,41.6558404 149.861426,41.6558404 C149.132811,41.6683156 148.404696,41.6103511 147.687232,41.4827552 L147.687232,34.6443711 C148.387802,34.5105815 149.099615,34.4444846 149.81284,34.4469933 C151.649973,34.4469933 152.457704,35.1454073 152.457704,36.3752232 C152.507562,37.011236 152.154509,37.6105774 151.574058,37.8752951 C152.318308,38.0695185 152.82175,38.762387 152.776545,39.5302326 Z M148.917048,35.503724 L148.917048,37.4289174 L150.007182,37.4289174 C150.918156,37.4289174 151.27951,37.0584543 151.27951,36.4055891 C151.27951,35.7982725 150.811876,35.4612119 149.910011,35.4612119 C149.579023,35.4612119 149.254109,35.4703216 148.917048,35.503724 Z M151.525473,39.5059399 C151.525473,38.8105625 151.015327,38.4643921 150.077023,38.4643921 L148.904902,38.4643921 L148.904902,40.5899999 C149.233512,40.6277167 149.564064,40.6459681 149.894828,40.6446584 C151.057839,40.6385852 151.525473,40.2893782 151.525473,39.5059399 Z" id="Shape"></path>
                <path d="M159.420588,38.7467943 L159.420588,34.5350542 C159.620398,34.4936272 159.823847,34.472265 160.027904,34.4712859 C160.240008,34.472048 160.451537,34.4934043 160.659513,34.5350542 L160.659513,38.7346479 C160.659513,39.8126348 161.236464,40.5292683 162.311414,40.5292683 C163.386365,40.5292683 163.966352,39.8126348 163.966352,38.7346479 L163.966352,34.5350542 C164.166068,34.4930288 164.369579,34.4716602 164.573668,34.4712859 C164.777736,34.4720811 164.981203,34.4934452 165.180985,34.5350542 L165.180985,38.7225016 C165.180985,40.6385852 164.005827,41.695316 162.299268,41.695316 C160.592709,41.695316 159.420588,40.6902072 159.420588,38.7467943 Z" id="Shape"></path>
                <path d="M172.256222,41.5100845 L172.256222,34.5259444 C172.659919,34.424772 173.082342,34.424772 173.486038,34.5259444 L173.486038,41.5100845 C173.286557,41.5535896 173.082889,41.5749748 172.878722,41.5738527 C172.669639,41.5729421 172.461147,41.5515844 172.256222,41.5100845 Z" id="Shape"></path>
                <path d="M184.985577,40.9422435 C184.984634,41.1334277 184.962226,41.3239015 184.918772,41.5100845 L180.643264,41.5100845 L180.643264,34.5259444 C180.842639,34.481467 181.046304,34.4590639 181.25058,34.4591396 C181.454821,34.4597085 181.658416,34.482104 181.857897,34.5259444 L181.857897,40.3865489 L184.894479,40.3865489 C184.948121,40.5672061 184.978729,40.7539152 184.985577,40.9422435 Z" id="Shape"></path>
                <path d="M197.459858,37.9572828 C197.459858,40.1648784 195.941567,41.6254746 193.545703,41.6254746 C192.834838,41.6378367 192.124103,41.5941772 191.420095,41.4949015 L191.420095,34.5563103 C192.09555,34.4460263 192.779379,34.3952218 193.463716,34.4044811 C196.056957,34.4044811 197.459858,35.831675 197.459858,37.9572828 Z M196.123762,37.9906852 C196.123762,36.5422353 195.264409,35.5614191 193.512301,35.5614191 C193.232531,35.556918 192.952728,35.5680695 192.674204,35.5948215 L192.674204,40.4533537 C192.956606,40.4746098 193.260264,40.4867561 193.609471,40.4867561 C195.252263,40.4867561 196.123762,39.4755741 196.123762,37.984612 L196.123762,37.9906852 Z" id="Shape"></path>
                <path d="M204.204108,41.5100845 L204.204108,34.5259444 C204.402431,34.474581 204.606561,34.4490648 204.811425,34.4500299 C205.016267,34.4494332 205.220349,34.4749435 205.418741,34.5259444 L205.418741,41.5100845 C205.219237,41.5534442 205.015584,41.5748278 204.811425,41.5738527 C204.607402,41.5722457 204.404015,41.55089 204.204108,41.5100845 Z" id="Shape"></path>
                <path d="M218.345474,34.5350542 L218.345474,41.455426 C217.970496,41.5357503 217.586877,41.5683988 217.203718,41.5525966 L213.969758,36.9187715 L213.775417,36.5483085 L213.796673,36.9825398 L213.796673,41.5100845 C213.596913,41.5518372 213.393431,41.5732029 213.189356,41.5738527 C212.985309,41.572693 212.781878,41.5513327 212.58204,41.5100845 L212.58204,34.6170419 C212.951845,34.4911558 213.346012,34.4537152 213.732905,34.5077249 L216.954719,39.14155 L217.14906,39.490757 L217.127804,39.0018672 L217.127804,34.5350542 C217.327466,34.4926832 217.531012,34.4713108 217.73512,34.4712859 C217.940225,34.4714515 218.144764,34.4928212 218.345474,34.5350542 Z" id="Shape"></path>
                <path d="M231.156816,37.6809538 L231.156816,41.1517677 C230.402704,41.5260943 229.569278,41.7125733 228.72755,41.695316 C226.601942,41.695316 225.08365,40.3015246 225.08365,38.0514169 C225.08365,35.8013091 226.671783,34.3316031 228.72755,34.3316031 C229.536483,34.2980952 230.336665,34.5097837 231.023206,34.9389197 C230.975531,35.3634198 230.739041,35.7438124 230.37945,35.9743943 C229.888422,35.645644 229.305881,35.4808741 228.715403,35.503724 C227.433965,35.503724 226.419747,36.4146988 226.419747,38.0392705 C226.419747,39.5575618 227.181929,40.5535609 228.736659,40.5535609 C229.147605,40.562473 229.557421,40.5071479 229.951292,40.3895855 L229.951292,38.8439649 L228.624306,38.8439649 C228.580305,38.6517049 228.557898,38.4551348 228.557501,38.2579045 C228.557744,38.06768 228.580164,37.8781324 228.624306,37.6931001 L231.156816,37.6809538 Z" id="Shape"></path>
                <path d="M251.389566,41.4341699 C251.141283,41.5180833 250.880294,41.5581565 250.618274,41.5525966 C250.446277,41.5540332 250.274507,41.5398037 250.105091,41.5100845 L249.497775,39.8338909 L246.76485,39.8338909 L246.157534,41.5100845 C245.973725,41.5389859 245.787906,41.5532016 245.601839,41.5525966 C245.368373,41.5605545 245.135777,41.5202378 244.918608,41.4341699 L247.517923,34.5259444 C247.72782,34.4767203 247.943105,34.4542735 248.158642,34.4591396 C248.363133,34.4547137 248.567319,34.4771742 248.765958,34.5259444 L251.389566,41.4341699 Z M249.106055,38.7893064 L248.298325,36.6120767 L248.103983,35.9713578 L247.906605,36.6120767 L247.126204,38.7893064 L249.106055,38.7893064 Z" id="Shape"></path>
                <path d="M270.48967,39.5302326 C270.48967,40.8572192 269.542257,41.6558404 267.574551,41.6558404 C266.84493,41.668303 266.115809,41.6103394 265.397321,41.4827552 L265.397321,34.6443711 C266.097932,34.5108779 266.809717,34.4447836 267.522929,34.4469933 C269.363098,34.4469933 270.167793,35.1454073 270.167793,36.3752232 C270.218159,37.0105055 269.866445,37.6096327 269.287184,37.8752951 C270.031433,38.0695185 270.534875,38.762387 270.48967,39.5302326 Z M266.627137,35.503724 L266.627137,37.4289174 L267.705124,37.4289174 C268.616099,37.4289174 268.977452,37.0584543 268.977452,36.4055891 C268.977452,35.7982725 268.509818,35.4612119 267.604917,35.4612119 C267.292149,35.4612119 266.964198,35.4703216 266.627137,35.503724 Z M269.247708,39.5059399 C269.247708,38.8105625 268.737562,38.4643921 267.802295,38.4643921 L266.627137,38.4643921 L266.627137,40.5899999 C266.955754,40.6276323 267.286301,40.6458834 267.617063,40.6446584 C268.770965,40.6385852 269.247708,40.2893782 269.247708,39.5059399 Z" id="Shape"></path>
                <path d="M282.563123,41.4432796 C282.243301,41.5218824 281.914627,41.5586285 281.585343,41.5525966 C281.454405,41.55654 281.323367,41.5494294 281.193624,41.5313405 L279.635857,38.9411356 L279.471882,38.9411356 C279.146967,38.9411356 278.79776,38.9411356 278.45159,38.9198795 L278.45159,41.5100845 C278.251847,41.5519412 278.048354,41.573308 277.844273,41.5738527 C277.635175,41.5732375 277.426654,41.5518767 277.221774,41.5100845 L277.221774,34.6322248 C277.956333,34.4824174 278.703984,34.4061265 279.453662,34.4044811 C281.391002,34.4044811 282.226062,35.263834 282.226062,36.5695645 C282.258611,37.4852235 281.716767,38.3240514 280.86871,38.6708797 L282.563123,41.4432796 Z M279.505284,37.8874414 C280.549869,37.8874414 280.962844,37.3438931 280.962844,36.6363693 C280.962844,35.9288456 280.49521,35.4703216 279.496174,35.4703216 C279.134821,35.4703216 278.788651,35.4915777 278.45159,35.5249801 L278.45159,37.8631487 C278.809907,37.8874414 279.168223,37.8874414 279.505284,37.8874414 Z" id="Shape"></path>
                <path d="M289.122141,41.5100845 L289.122141,34.5259444 C289.320464,34.474581 289.524594,34.4490648 289.729458,34.4500299 C289.934306,34.4493337 290.138401,34.4748456 290.336774,34.5259444 L290.336774,41.5100845 C290.137293,41.5535896 289.933625,41.5749748 289.729458,41.5738527 C289.525433,41.5722838 289.322042,41.5509277 289.122141,41.5100845 Z" id="Shape"></path>
                <path d="M303.163299,37.6809538 L303.163299,41.1517677 C302.409067,41.5257528 301.575726,41.7122129 300.734033,41.695316 C298.608425,41.695316 297.090134,40.3015246 297.090134,38.0514169 C297.090134,35.8013091 298.678267,34.3316031 300.734033,34.3316031 C301.542966,34.2980952 302.343149,34.5097837 303.02969,34.9389197 C302.982015,35.3634198 302.745525,35.7438124 302.385934,35.9743943 C301.894906,35.645644 301.312364,35.4808741 300.721887,35.503724 C299.437412,35.503724 298.42623,36.4146988 298.42623,38.0392705 C298.42623,39.5575618 299.188413,40.5535609 300.743143,40.5535609 C301.154088,40.562473 301.563905,40.5071479 301.957776,40.3895855 L301.957776,38.8439649 L300.62168,38.8439649 C300.577679,38.6517049 300.555272,38.4551348 300.554875,38.2579045 C300.555118,38.06768 300.577538,37.8781324 300.62168,37.6931001 L303.163299,37.6809538 Z" id="Shape"></path>
                <path d="M315.804593,34.5350542 L315.804593,41.5191942 C315.611142,41.5618812 315.4136,41.5832646 315.215496,41.5829624 C314.996378,41.5817987 314.777832,41.5604525 314.562631,41.5191942 L314.562631,38.5372701 L311.267938,38.5372701 L311.267938,41.5191942 C310.867304,41.6020962 310.453939,41.6020962 310.053305,41.5191942 L310.053305,34.5350542 C310.244783,34.4868734 310.442006,34.4654139 310.639366,34.4712859 C310.855799,34.4648005 311.072166,34.486233 311.283121,34.5350542 L311.283121,37.395515 L314.577813,37.395515 L314.577813,34.5350542 C314.777714,34.4942109 314.981105,34.4728548 315.18513,34.4712859 C315.393244,34.4715112 315.600797,34.492877 315.804593,34.5350542 Z" id="Shape"></path>
                <path d="M327.777838,35.6342971 L325.65223,35.6342971 L325.65223,41.5191942 C325.451941,41.5579169 325.248831,41.580259 325.044914,41.585999 C324.841053,41.5794539 324.638006,41.5571187 324.437597,41.5191942 L324.437597,35.6342971 L322.311989,35.6342971 C322.267348,35.4524457 322.244916,35.265853 322.245185,35.0786025 C322.244922,34.8923534 322.267355,34.7067663 322.311989,34.5259444 L327.777838,34.5259444 C327.822472,34.7067663 327.844906,34.8923534 327.844643,35.0786025 C327.844358,35.2658198 327.821934,35.4523467 327.777838,35.6342971 Z" id="Shape"></path>
                <path d="M338.949426,40.9331338 C338.951689,41.1280823 338.926126,41.3223567 338.873511,41.5100845 L334.318637,41.5100845 L334.318637,34.5259444 L338.791523,34.5259444 C338.834374,34.7111433 338.855771,34.9006579 338.855292,35.0907488 C338.855502,35.2778178 338.834104,35.464285 338.791523,35.6464434 L335.54238,35.6464434 L335.54238,37.3742589 L338.424097,37.3742589 C338.468739,37.5561104 338.49117,37.742703 338.490902,37.9299535 C338.490448,38.1171606 338.468026,38.3036677 338.424097,38.4856482 L335.54238,38.4856482 L335.54238,40.3865489 L338.882621,40.3865489 C338.932452,40.5643071 338.954978,40.7486065 338.949426,40.9331338 Z" id="Shape"></path>
                <path d="M351.028951,41.4432796 C350.70916,41.5220521 350.380464,41.5588008 350.051172,41.5525966 C349.920233,41.55654 349.789195,41.5494294 349.659452,41.5313405 L348.101686,38.9411356 L347.940747,38.9411356 C347.612796,38.9411356 347.263589,38.9411356 346.917418,38.9198795 L346.917418,41.5100845 C346.717675,41.5519412 346.514183,41.573308 346.310102,41.5738527 C346.101012,41.5730789 345.892506,41.5517198 345.687602,41.5100845 L345.687602,34.6322248 C346.422162,34.4824174 347.169813,34.4061265 347.919491,34.4044811 C349.85683,34.4044811 350.691891,35.263834 350.691891,36.5695645 C350.724439,37.4852235 350.182595,38.3240514 349.334538,38.6708797 L351.028951,41.4432796 Z M347.971113,37.8874414 C349.015697,37.8874414 349.428672,37.3438931 349.428672,36.6363693 C349.428672,35.9288456 348.961038,35.4703216 347.962003,35.4703216 C347.600649,35.4703216 347.254479,35.4915777 346.917418,35.5249801 L346.917418,37.8631487 C347.269662,37.8874414 347.627979,37.8874414 347.965039,37.8874414 L347.971113,37.8874414 Z" id="Shape"></path>
                <path d="M366.685571,35.6555532 L366.685571,37.6809538 L369.524776,37.6809538 C369.564062,37.862478 369.582401,38.0479087 369.579434,38.2336118 C369.582315,38.4203154 369.563978,38.606742 369.524776,38.7893064 L366.685571,38.7893064 L366.685571,41.5222308 C366.485828,41.5640876 366.282336,41.5854543 366.078255,41.585999 C365.874187,41.5852038 365.67072,41.5638398 365.470938,41.5222308 L365.470938,34.5380908 L369.898276,34.5380908 C369.971154,34.9111006 369.971154,35.2946896 369.898276,35.6676995 L366.685571,35.6555532 Z" id="Shape"></path>
                <path d="M376.420855,38.7467943 L376.420855,34.5350542 C376.620665,34.4936272 376.824114,34.472265 377.028172,34.4712859 C377.240276,34.472048 377.451805,34.4934043 377.659781,34.5350542 L377.659781,38.7346479 C377.659781,39.8126348 378.236732,40.5292683 379.311682,40.5292683 C380.386632,40.5292683 380.966619,39.8126348 380.966619,38.7346479 L380.966619,34.5350542 C381.166305,34.4928358 381.369836,34.4714651 381.573936,34.4712859 C381.778003,34.4720811 381.981471,34.4934452 382.181252,34.5350542 L382.181252,38.7225016 C382.181252,40.6385852 381.006095,41.695316 379.299535,41.695316 C377.592976,41.695316 376.420855,40.6902072 376.420855,38.7467943 Z" id="Shape"></path>
                <path d="M394.075547,35.6342971 L391.949939,35.6342971 L391.949939,41.5191942 C391.749602,41.5576034 391.546517,41.5799427 391.342622,41.585999 C391.13875,41.5796135 390.935691,41.557277 390.735306,41.5191942 L390.735306,35.6342971 L388.609698,35.6342971 C388.567536,35.4520661 388.546144,35.2656471 388.54593,35.0786025 C388.546138,34.8925597 388.567532,34.7071459 388.609698,34.5259444 L394.075547,34.5259444 C394.117712,34.7071459 394.139106,34.8925597 394.139315,35.0786025 C394.138592,35.2656174 394.117207,35.4519799 394.075547,35.6342971 Z" id="Shape"></path>
                <path d="M400.525248,38.7467943 L400.525248,34.5350542 C400.725058,34.4936272 400.928507,34.472265 401.132565,34.4712859 C401.344669,34.472048 401.556198,34.4934043 401.764174,34.5350542 L401.764174,38.7346479 C401.764174,39.8126348 402.341124,40.5292683 403.416075,40.5292683 C404.491025,40.5292683 405.071012,39.8126348 405.071012,38.7346479 L405.071012,34.5350542 C405.270729,34.4930288 405.474239,34.4716602 405.678329,34.4712859 C405.882396,34.4720811 406.085863,34.4934452 406.285645,34.5350542 L406.285645,38.7225016 C406.285645,40.6385852 405.110488,41.695316 403.403928,41.695316 C401.697369,41.695316 400.525248,40.6902072 400.525248,38.7467943 Z" id="Shape"></path>
                <path d="M418.690085,41.4432796 C418.369261,41.5220424 418.039562,41.5587889 417.709269,41.5525966 C417.578333,41.5563693 417.447309,41.5492595 417.31755,41.5313405 L415.76282,38.9411356 L415.598844,38.9411356 C415.27393,38.9411356 414.924723,38.9411356 414.575516,38.9198795 L414.575516,41.5100845 C414.375799,41.5521098 414.172289,41.5734784 413.968199,41.5738527 C413.764175,41.5722838 413.560783,41.5509277 413.360883,41.5100845 L413.360883,34.6322248 C414.095418,34.4822577 414.843085,34.4059652 415.592771,34.4044811 C417.527074,34.4044811 418.365171,35.263834 418.365171,36.5695645 C418.396337,37.4857294 417.85344,38.3243116 417.004782,38.6708797 L418.690085,41.4432796 Z M415.632247,37.8874414 C416.676831,37.8874414 417.089806,37.3438931 417.089806,36.6363693 C417.089806,35.9288456 416.622172,35.4703216 415.6201,35.4703216 C415.261783,35.4703216 414.915613,35.4915777 414.575516,35.5249801 L414.575516,37.8631487 C414.936869,37.8874414 415.295186,37.8874414 415.632247,37.8874414 Z" id="Shape"></path>
                <path d="M429.892039,40.9331338 C429.894302,41.1280823 429.868739,41.3223567 429.816124,41.5100845 L425.26125,41.5100845 L425.26125,34.5259444 L429.734136,34.5259444 C429.776987,34.7111433 429.798384,34.9006579 429.797904,35.0907488 C429.798115,35.2778178 429.776717,35.464285 429.734136,35.6464434 L426.491066,35.6464434 L426.491066,37.3742589 L429.37582,37.3742589 C429.417981,37.5564899 429.439374,37.7429089 429.439588,37.9299535 C429.438693,38.1169583 429.41731,38.303302 429.37582,38.4856482 L426.491066,38.4856482 L426.491066,40.3865489 L429.831307,40.3865489 C429.87909,40.5646215 429.899567,40.7489154 429.892039,40.9331338 Z" id="Shape"></path>
                <path d="M449.013399,35.6342971 L446.887791,35.6342971 L446.887791,41.5191942 C446.687503,41.5579169 446.484392,41.580259 446.280475,41.585999 C446.076614,41.5794539 445.873567,41.5571187 445.673158,41.5191942 L445.673158,35.6342971 L443.547551,35.6342971 C443.502909,35.4524457 443.480477,35.265853 443.480746,35.0786025 C443.480483,34.8923534 443.502916,34.7067663 443.547551,34.5259444 L449.013399,34.5259444 C449.058034,34.7067663 449.080467,34.8923534 449.080204,35.0786025 C449.07992,35.2658198 449.057496,35.4523467 449.013399,35.6342971 Z" id="Shape"></path>
                <path d="M454.822382,38.0058681 C454.822382,35.8802603 456.313344,34.3194568 458.390366,34.3194568 C460.467389,34.3194568 461.958351,35.8377481 461.958351,38.0058681 C461.958351,40.1071833 460.467389,41.6831697 458.390366,41.6831697 C456.313344,41.6831697 454.822382,40.1588052 454.822382,38.0058681 Z M460.631364,38.0058681 C460.631364,36.4875768 459.750755,35.4703216 458.390366,35.4703216 C457.029977,35.4703216 456.149368,36.4815036 456.149368,38.0058681 C456.149368,39.5302326 457.029977,40.5292683 458.390366,40.5292683 C459.750755,40.5292683 460.631364,39.4968302 460.631364,38.0058681 Z" id="Shape"></path>
                <path d="M474.347608,37.6809538 L474.347608,41.1517677 C473.593295,41.5255258 472.76001,41.7119733 471.918342,41.695316 C469.792734,41.695316 468.274443,40.3015246 468.274443,38.0514169 C468.274443,35.8013091 469.862576,34.3316031 471.918342,34.3316031 C472.727275,34.2980952 473.527458,34.5097837 474.213999,34.9389197 C474.168727,35.3634583 473.932997,35.7444249 473.57328,35.9743943 C473.082074,35.6460266 472.49966,35.4812925 471.909232,35.503724 C470.624758,35.503724 469.613576,36.4146988 469.613576,38.0392705 C469.613576,39.5575618 470.375758,40.5535609 471.930488,40.5535609 C472.341403,40.5619304 472.751136,40.5066165 473.145121,40.3895855 L473.145121,38.8439649 L471.827245,38.8439649 C471.785688,38.6513569 471.764317,38.4549427 471.763476,38.2579045 C471.764192,38.0678812 471.785574,37.8784994 471.827245,37.6931001 L474.347608,37.6809538 Z" id="Shape"></path>
                <path d="M485.85322,40.9331338 C485.855483,41.1280823 485.82992,41.3223567 485.777305,41.5100845 L481.222431,41.5100845 L481.222431,34.5259444 L485.695317,34.5259444 C485.738168,34.7111433 485.759565,34.9006579 485.759086,35.0907488 C485.759297,35.2778178 485.737899,35.464285 485.695317,35.6464434 L482.452247,35.6464434 L482.452247,37.3742589 L485.337001,37.3742589 C485.379162,37.5564899 485.400555,37.7429089 485.400769,37.9299535 C485.399875,38.1169583 485.378491,38.303302 485.337001,38.4856482 L482.452247,38.4856482 L482.452247,40.3865489 L485.792488,40.3865489 C485.840271,40.5646215 485.860748,40.7489154 485.85322,40.9331338 Z" id="Shape"></path>
                <path d="M497.416526,35.6342971 L495.306101,35.6342971 L495.306101,41.5191942 C495.105812,41.5579169 494.902702,41.580259 494.698785,41.585999 C494.494912,41.5796259 494.291852,41.5572893 494.091468,41.5191942 L494.091468,35.6342971 L491.965861,35.6342971 C491.921219,35.4524457 491.898787,35.265853 491.899056,35.0786025 C491.898793,34.8923534 491.921226,34.7067663 491.965861,34.5259444 L497.431709,34.5259444 C497.476343,34.7067663 497.498777,34.8923534 497.498514,35.0786025 C497.493266,35.2664254 497.465745,35.4529616 497.416526,35.6342971 Z" id="Shape"></path>
                <path d="M509.708613,34.5350542 L509.708613,41.5191942 C509.516189,41.5618778 509.319653,41.5832625 509.122552,41.5829624 C508.902429,41.5817963 508.682876,41.5604509 508.466651,41.5191942 L508.466651,38.5372701 L505.171958,38.5372701 L505.171958,41.5191942 C504.972148,41.5606212 504.768699,41.5819833 504.564642,41.5829624 C504.360611,41.5815088 504.157208,41.5601515 503.957325,41.5191942 L503.957325,34.5350542 C504.149841,34.486901 504.348062,34.465444 504.546422,34.4712859 C504.761848,34.4649267 504.977195,34.4863594 505.187141,34.5350542 L505.187141,37.395515 L508.481833,37.395515 L508.481833,34.5350542 C508.681763,34.494398 508.885136,34.4730438 509.08915,34.4712859 C509.297267,34.4714482 509.504827,34.4928146 509.708613,34.5350542 Z" id="Shape"></path>
                <path d="M521.508773,40.9331338 C521.511036,41.1280823 521.485473,41.3223567 521.432858,41.5100845 L516.862801,41.5100845 L516.862801,34.5259444 L521.335688,34.5259444 C521.378538,34.7111433 521.399935,34.9006579 521.399456,35.0907488 C521.399667,35.2778178 521.378269,35.464285 521.335688,35.6464434 L518.092617,35.6464434 L518.092617,37.3742589 L520.977371,37.3742589 C521.019533,37.5564899 521.040925,37.7429089 521.041139,37.9299535 C521.040245,38.1169583 521.018861,38.303302 520.977371,38.4856482 L518.092617,38.4856482 L518.092617,40.3865489 L521.432858,40.3865489 C521.485768,40.5638327 521.511366,40.7481412 521.508773,40.9331338 Z" id="Shape"></path>
                <path d="M533.582225,41.4432796 C533.262434,41.5220521 532.933738,41.5588008 532.604446,41.5525966 C532.473508,41.556454 532.342478,41.5493438 532.212727,41.5313405 L530.657996,38.9411356 L530.490984,38.9411356 C530.163033,38.9411356 529.816863,38.9411356 529.467656,38.9198795 L529.467656,41.5100845 C529.267939,41.5521098 529.064429,41.5734784 528.860339,41.5738527 C528.656307,41.5724183 528.452903,41.5510609 528.253023,41.5100845 L528.253023,34.6322248 C528.986557,34.4824187 529.733201,34.4061267 530.481875,34.4044811 C532.419214,34.4044811 533.257311,35.263834 533.257311,36.5695645 C533.288477,37.4857294 532.74558,38.3243116 531.896922,38.6708797 L533.582225,41.4432796 Z M530.527423,37.8874414 C531.572008,37.8874414 531.984983,37.3438931 531.984983,36.6363693 C531.984983,35.9288456 531.517349,35.4703216 530.515277,35.4703216 C530.15696,35.4703216 529.807753,35.4915777 529.470693,35.5249801 L529.470693,37.8631487 C529.829009,37.8874414 530.187326,37.8874414 530.527423,37.8874414 Z" id="Shape"></path>
            </g>
        </g>
    </g>
</svg>