<?xml version="1.0" encoding="UTF-8"?>
<svg width="193px" height="9px" viewBox="0 0 193 9" version="1.1" xmlns="http://www.w3.org/2000/svg" xmlns:xlink="http://www.w3.org/1999/xlink">
    <!-- Generator: sketchtool 50.2 (55047) - http://www.bohemiancoding.com/sketch -->
    <title>AC3ED30B-E35B-4ABE-8233-732DFC1E0A66</title>
    <desc>Created with sketchtool.</desc>
    <defs></defs>
    <g id="Page-1" stroke="none" stroke-width="1" fill="none" fill-rule="evenodd">
        <g id="Agenda" transform="translate(-235.000000, -30.000000)" fill="#000000" fill-rule="nonzero">
            <g id="BS-Logo" transform="translate(235.000000, 30.114590)">
                <path d="M0.0486282854,0.373534135 L2.64033762,0.373534135 C3.28612375,0.373534135 3.7831678,0.450331866 4.13146978,0.60392733 C4.47204519,0.75076172 4.75934285,0.998597061 4.95454734,1.31394948 C5.15384194,1.63048967 5.25790009,1.9976663 5.25431543,2.37170263 C5.25803909,2.71991974 5.16588796,3.06244934 4.98795007,3.36179383 C4.79824855,3.67060746 4.52669095,3.92081992 4.20341413,4.08466319 C4.63108328,4.22798089 4.95911523,4.39613652 5.18750997,4.58913008 C5.41468258,4.7806274 5.5968648,5.01983295 5.72109719,5.28973095 C5.8508095,5.57072953 5.916624,5.87698633 5.91380525,6.1864658 C5.92514611,6.81970733 5.66296084,7.42710319 5.19436181,7.85317643 C4.7130199,8.30539802 4.07094518,8.5317943 3.26813766,8.53236529 L0.0486282854,8.53236529 L0.0486282854,0.373534135 Z M0.846867907,1.17263024 L0.846867907,3.78489509 L2.29431958,3.78489509 C2.85902558,3.78489509 3.27441852,3.73179332 3.54049839,3.62558976 C3.79654491,3.5268362 4.01704337,3.35348085 4.17343732,3.12797472 C4.3279877,2.90626531 4.40970622,2.6419523 4.40725644,2.37170263 C4.42389854,2.03242926 4.27906389,1.70528084 4.01670143,1.48952794 C3.75576044,1.2782628 3.34122398,1.17263024 2.77309206,1.17263024 L0.846867907,1.17263024 Z M0.846867907,4.60454672 L0.846867907,7.73241271 L2.83904104,7.73241271 C3.43343836,7.73241271 3.86910133,7.67360106 4.14602995,7.55597777 C4.41674921,7.44331826 4.64885997,7.2543563 4.81408457,7.01211279 C5.1869443,6.47308462 5.14491625,5.74942521 4.71216342,5.2571847 C4.45401888,4.97303986 4.11198651,4.77862146 3.7357759,4.70218547 C3.45656332,4.63309607 2.97407943,4.59997883 2.28832422,4.60283376 L0.846867907,4.60454672 Z M13.2975218,0.373534135 L14.1171734,0.373534135 L14.1171734,7.73926455 L17.2536042,7.73926455 L17.2536042,8.52979585 L13.2975218,8.52979585 L13.2975218,0.373534135 Z M28.3510192,0.251913935 C29.5814958,0.251913935 30.6132691,0.664451937 31.4463389,1.48952794 C32.2794087,2.31460394 32.6948017,3.33038956 32.6925177,4.53688478 C32.6925177,5.72796336 32.2779813,6.70692032 31.4489083,7.47375566 C30.6198354,8.24059101 29.6091887,8.62400868 28.4169682,8.62400868 C27.205334,8.62400868 26.1835531,8.21032871 25.3516252,7.38296875 C24.5196974,6.5556088 24.103448,5.61976135 24.102877,4.57542639 C24.0981204,3.8124315 24.2933095,3.06149988 24.6690104,2.39739704 C25.0332469,1.74062776 25.5698455,1.19573734 26.2209527,0.821473321 C26.8673422,0.444736438 27.6028646,0.248064797 28.3510192,0.251913935 Z M25.40644,2.79994277 C25.10338,3.3436591 24.948054,3.95728552 24.9559313,4.57970879 C24.9559313,5.55038645 25.2905296,6.33492238 25.9597262,6.93331661 C26.6289228,7.53171083 27.4371547,7.83233541 28.3844219,7.83519034 C28.9998999,7.83897831 29.6054028,7.67969766 30.13935,7.37354747 C30.665549,7.07606785 31.1001191,6.64001664 31.3958066,6.1128085 C31.6818781,5.63618104 31.8375414,5.09268862 31.8471717,4.53688478 C31.855403,3.92218482 31.6995973,3.31640499 31.3958066,2.78195668 C31.0942733,2.25652206 30.6562902,1.82238606 30.1282158,1.52550011 C29.5987521,1.21658666 28.9965567,1.05428658 28.3835654,1.05529244 C27.1517592,1.06680032 26.0185132,1.73090329 25.40644,2.79994277 Z M47.840228,1.95716617 L47.1910159,2.44107753 C46.8568638,1.99427759 46.419624,1.63490644 45.9165733,1.39360215 C45.4045901,1.15386409 44.8451365,1.03266378 44.2798394,1.03901931 C43.645817,1.03404828 43.0215569,1.19528104 42.4692401,1.50665755 C41.9331812,1.8008952 41.4870728,2.23516257 41.1785243,2.76311412 C40.8683174,3.30401362 40.7097246,3.91856073 40.7194509,4.54202366 C40.7194509,5.53611178 41.0606156,6.33549337 41.7429448,6.94016845 C42.4252741,7.54484353 43.2854658,7.84917952 44.3235199,7.85317643 C45.4689196,7.85317643 46.4247516,7.40580823 47.1910159,6.51107183 L47.840228,7.00097855 C47.4345344,7.51611794 46.9119209,7.9271623 46.3156931,8.20005094 C45.6762458,8.48855421 44.9812958,8.63327456 44.2798394,8.62400868 C42.8489464,8.62400868 41.7206764,8.14923311 40.8950294,7.19968197 C40.2058482,6.39630347 39.8609722,5.48700691 39.8604012,4.47179228 C39.8604012,3.2807137 40.2795055,2.27606233 41.1177142,1.45783817 C41.9559229,0.639614008 43.0042548,0.230501928 44.2627098,0.230501928 C44.9774527,0.219827402 45.6849165,0.375217288 46.3293968,0.684436477 C46.9312997,0.975993178 47.4506831,1.41352358 47.840228,1.95716617 Z M56.0975544,0.415501668 L56.0975544,3.5630667 L59.6853503,0.417214629 L60.9178254,0.417214629 L57.8970194,3.19991906 L61.2210194,8.57347635 L60.1478496,8.57347635 L57.0987798,3.82771911 L56.0975544,4.70732436 L56.0975544,8.57347635 L55.2667685,8.57347635 L55.2667685,0.417214629 L56.0975544,0.415501668 Z M75.1122731,2.44107753 C74.7783189,1.99408854 74.3410283,1.63467562 73.8378304,1.39360215 C73.3258472,1.15386409 72.7663936,1.03266378 72.2010966,1.03901931 C71.5670742,1.03404828 70.942814,1.19528104 70.3904973,1.50665755 C69.8544383,1.8008952 69.40833,2.23516257 69.0997815,2.76311412 C68.7899691,3.30417417 68.6314047,3.91861115 68.6407081,4.54202366 C68.6407081,5.53611178 68.9833002,6.33549337 69.6684844,6.94016845 C70.3536686,7.54484353 71.2110054,7.84917952 72.2404947,7.85317643 C73.3853233,7.85317643 74.3411553,7.40580823 75.1079907,6.51107183 L75.7614851,7.00097855 C75.3557916,7.51611794 74.8331781,7.9271623 74.2369502,8.20005094 C73.5962602,8.48938263 72.8997325,8.63412707 72.1968142,8.62400868 C70.7653502,8.62400868 69.6370801,8.14923311 68.8120041,7.19968197 C68.122252,6.39630347 67.7773759,5.48700691 67.7773759,4.47179228 C67.7773759,3.2807137 68.1967658,2.27606233 69.0355455,1.45783817 C69.8743252,0.639614008 70.922657,0.230501928 72.1805411,0.230501928 C72.8950114,0.219804001 73.6022023,0.375198349 74.2463715,0.684436477 C74.8499941,0.975149442 75.37096,1.41277254 75.7614851,1.95716617 L75.1122731,2.44107753 Z M83.2882338,0.394946142 L84.1078855,0.394946142 L84.1078855,3.81572838 L88.2660972,3.81572838 L88.2660972,0.394946142 L89.08061,0.394946142 L89.08061,8.55120786 L88.2660972,8.55120786 L88.2660972,4.61910689 L84.1078855,4.61910689 L84.1078855,8.55120786 L83.2882338,8.55120786 L83.2882338,0.394946142 Z M100.300502,0.373534135 L104.103274,8.52893937 L103.233947,8.52893937 L101.949226,5.83959129 L98.4273793,5.83959129 L97.1563625,8.52893937 L96.2424981,8.52893937 L100.096659,0.373534135 L100.300502,0.373534135 Z M100.202006,2.10019838 L98.7930964,5.05933775 L101.588648,5.05933775 L100.202006,2.10019838 Z M111.164954,0.394946142 L111.979467,0.394946142 L111.979467,8.55120786 L111.164954,8.55120786 L111.164954,0.394946142 Z M119.764016,8.55206434 L119.764016,0.395802622 L119.935312,0.395802622 L125.361115,6.63783091 L125.361115,0.395802622 L126.164493,0.395802622 L126.164493,8.55206434 L125.97778,8.55206434 L120.606793,2.38540631 L120.606793,8.55206434 L119.764016,8.55206434 Z M143.031159,6.48366446 C143.518782,7.38239777 144.081775,7.83147893 144.720138,7.83090794 C144.990651,7.83185814 145.257207,7.76595464 145.49611,7.63905636 C145.724547,7.52355131 145.915297,7.34528065 146.04597,7.12516819 C146.169899,6.91819106 146.234769,6.68122313 146.233539,6.43998396 C146.227469,6.15041502 146.131378,5.86992275 145.958609,5.63746194 C145.701665,5.2743143 145.233741,4.90317285 144.554838,4.52403758 C143.873079,4.01014941 143.45112,3.63900795 143.28896,3.41061321 C143.008268,3.05484059 142.855331,2.61503333 142.854724,2.16186496 C142.850215,1.82238628 142.937512,1.4879959 143.107386,1.19404224 C143.278675,0.90207352 143.52737,0.663160709 143.825973,0.503719137 C144.135015,0.333017758 144.482718,0.2445438 144.835763,0.246775053 C145.212806,0.247627475 145.582753,0.349355388 145.90722,0.54140427 C146.241247,0.733255853 146.595259,1.08412727 146.969256,1.59401853 L146.303771,2.0950595 C145.998864,1.69137179 145.738208,1.42443544 145.521804,1.29425044 C145.307749,1.16473484 145.061963,1.09713613 144.811782,1.09897293 C144.514708,1.08763549 144.225437,1.19557231 144.008403,1.39874103 C143.804166,1.58797152 143.690167,1.85521582 143.694932,2.13360111 C143.695901,2.3105969 143.733215,2.48550727 143.804561,2.64748928 C143.904666,2.85178674 144.043067,3.03496349 144.212246,3.18707186 C144.318449,3.29327541 144.670748,3.56620713 145.269142,4.00586701 C145.973169,4.52660702 146.456509,4.9574166 146.719163,5.29829575 C146.973594,5.61691967 147.112212,6.0125395 147.112288,6.42028492 C147.114284,7.00607245 146.869626,7.56564708 146.438238,7.96194942 C146.005273,8.39426066 145.41585,8.63305724 144.804074,8.62400868 C144.323715,8.62937421 143.852631,8.49162693 143.450835,8.22831479 C143.047147,7.96337689 142.676006,7.52143307 142.33741,6.90248332 L143.031159,6.48366446 Z M155.3876,0.392376701 L155.3876,3.81572838 L159.542386,3.81572838 L159.542386,0.394946142 L160.356899,0.394946142 L160.356899,8.55120786 L159.542386,8.55120786 L159.542386,4.61910689 L155.3876,4.61910689 L155.3876,8.55120786 L154.567949,8.55120786 L154.567949,0.394946142 L155.3876,0.392376701 Z M168.938831,0.392376701 L168.938831,8.55120786 L168.125175,8.55120786 L168.125175,0.394946142 L168.938831,0.392376701 Z M181.213907,0.392376701 L181.213907,1.19832465 L177.531042,1.19832465 L177.531042,3.7497794 L179.715923,3.7497794 L179.715923,4.55315791 L177.531042,4.55315791 L177.531042,8.55120786 L176.717385,8.55120786 L176.717385,0.395802622 L181.213907,0.392376701 Z M187.858481,1.18462096 L187.858481,0.395802622 L192.338729,0.395802622 L192.338729,1.1871904 L190.512713,1.1871904 L190.512713,8.55292082 L189.681927,8.55292082 L189.681927,1.1871904 L187.858481,1.18462096 Z" id="Shape"></path>
            </g>
        </g>
    </g>
</svg>