<?xml version="1.0" encoding="UTF-8"?>
<svg width="207px" height="81px" viewBox="0 0 207 81" version="1.1" xmlns="http://www.w3.org/2000/svg" xmlns:xlink="http://www.w3.org/1999/xlink">
    <!-- Generator: sketchtool 50.2 (55047) - http://www.bohemiancoding.com/sketch -->
    <title>173D42F4-D807-4296-B992-3D042B9E470E</title>
    <desc>Created with sketchtool.</desc>
    <defs></defs>
    <g id="Page-1" stroke="none" stroke-width="1" fill="none" fill-rule="evenodd">
        <g id="Agenda" transform="translate(-735.000000, -2216.000000)" fill="#49505B">
            <g id="Night-S-Logo" transform="translate(735.000000, 2216.043086)">
                <g id="Group" transform="translate(3.199920, 0.000000)">
                    <path d="M1.79844726,13.9584821 L1.79844726,31.5138588 C1.79844726,32.0842653 1.51300925,32.3701728 0.942133226,32.3701728 C0.370787733,32.3701728 0.0858191916,32.0842653 0.0858191916,31.5138588 L0.0858191916,13.7016818 C0.0858191916,13.0453622 0.385341316,12.5744833 0.985324504,12.2885759 C1.67028184,11.9458625 2.2834102,12.0463291 2.82564853,12.588098 L21.6232439,31.1279541 C21.7654934,31.271612 21.8795747,31.185699 21.9654878,30.8711538 C22.0514009,30.5861852 21.7795775,30.1861964 21.1523651,29.6725958 L1.24165535,10.4473129 C0.41350954,9.64827426 -9.38940827e-05,8.86285026 -9.38940827e-05,8.09244931 C-9.38940827e-05,7.55068045 0.199431032,7.09341627 0.599419824,6.72206517 C0.998939146,6.35165301 1.46981797,6.16527326 2.01252577,6.16527326 C2.52659587,6.16527326 2.93972984,6.32254585 3.25427501,6.63662156 L21.6232439,24.9623992 C21.7941311,25.1055876 21.9082124,25.0769499 21.9654878,24.8769555 C22.0222937,24.5633493 21.7514093,24.1060851 21.1523651,23.5070409 L1.02757684,3.98176637 C0.342619508,3.3259162 -9.38940827e-05,2.6118517 -9.38940827e-05,1.84098128 C-9.38940827e-05,1.32738065 0.171262807,0.892181574 0.513976209,0.534914589 C0.85622014,0.178117075 1.28437716,0.000187788165 1.79844726,0.000187788165 C2.4547669,0.000187788165 3.02517345,0.242434522 3.51107533,0.727397459 L21.922766,18.8822878 L21.922766,1.32738065 C21.922766,0.756504625 22.2077346,0.471066613 22.77908,0.471066613 C23.3494866,0.471066613 23.6353941,0.756504625 23.6353941,1.32738065 L23.6353941,19.1390881 C23.6353941,19.6531582 23.3640402,20.0672311 22.8218019,20.3813069 C22.5072567,20.5808318 22.1936504,20.680829 21.8795747,20.680829 C21.5082236,20.680829 21.1800638,20.5385794 20.8950953,20.252672 L2.31251736,1.9264249 C1.99797219,1.61281866 1.79844726,1.57009685 1.71253417,1.79825947 C1.62709056,2.02689156 1.79844726,2.35458191 2.22660428,2.78273893 L22.350923,22.3080134 C23.2354053,23.163858 23.6781159,23.9497515 23.6781159,24.662877 C23.6781159,24.8628714 23.6494782,25.0769499 23.5926723,25.3051126 C23.3640402,26.218702 22.7504424,26.6754967 21.7514093,26.6754967 C21.209171,26.6754967 20.7664604,26.50414 20.4242165,26.1614266 L2.05524758,7.83564899 C1.94116627,7.72203715 1.82661549,7.76475896 1.71253417,7.96381441 C1.68389648,8.0497275 1.67028184,8.121087 1.67028184,8.17789292 C1.67028184,8.34924962 1.92661268,8.69196303 2.44068279,9.20556366 L22.350923,28.4308466 C23.2645125,29.3157983 23.7208377,30.0725846 23.7208377,30.7002665 C23.7208377,31.271612 23.5138012,31.7631476 23.1001978,32.1776899 C22.6861249,32.5908239 22.1936504,32.7983298 21.6232439,32.7983298 C21.137342,32.7983298 20.7378227,32.6410572 20.4242165,32.3269815 L1.79844726,13.9584821 Z" id="Fill-1"></path>
                    <path d="M41.0189446,30.2290121 C41.0189446,30.8003576 40.804866,31.2994047 40.376709,31.7275617 C39.948552,32.1557187 39.448566,32.3702667 38.87769,32.3702667 C38.306814,32.3702667 37.8072975,32.1557187 37.3796099,31.7275617 C36.9514529,31.2994047 36.7373744,30.8003576 36.7373744,30.2290121 L36.7373744,2.61194559 C36.7373744,2.32650758 36.5937164,2.18378858 36.3092174,2.18378858 C36.0233099,2.18378858 35.8810603,2.32650758 35.8810603,2.61194559 L35.8810603,30.2290121 C35.8810603,30.8003576 35.6669818,31.2994047 35.2383554,31.7275617 C34.8101983,32.1557187 34.3106818,32.3702667 33.7398058,32.3702667 C33.1684603,32.3702667 32.6694132,32.1557187 32.2412562,31.7275617 C31.8130992,31.2994047 31.5990207,30.8003576 31.5990207,30.2290121 L31.5990207,2.61194559 C31.5990207,2.32650758 31.4558322,2.18378858 31.1708637,2.18378858 C30.8849562,2.18378858 30.7427067,2.32650758 30.7427067,2.61194559 L30.7427067,31.5134832 C30.7427067,32.0843592 30.4572687,32.3702667 29.8863926,32.3702667 C29.3150471,32.3702667 29.0300786,32.0843592 29.0300786,31.5134832 L29.0300786,2.61194559 C29.0300786,2.04106957 29.2441571,1.54155305 29.6723141,1.11292656 C30.1004711,0.684769545 30.5995182,0.470691037 31.1708637,0.470691037 C31.7412702,0.470691037 32.2412562,0.684769545 32.6694132,1.11292656 C33.0975703,1.54155305 33.3116488,2.04106957 33.3116488,2.61194559 L33.3116488,30.2290121 C33.3116488,30.5144502 33.4543678,30.6571692 33.7398058,30.6571692 C34.0252438,30.6571692 34.1679628,30.5144502 34.1679628,30.2290121 L34.1679628,2.61194559 C34.1679628,2.04106957 34.3820413,1.54155305 34.8101983,1.11292656 C35.2383554,0.684769545 35.7374024,0.470691037 36.3092174,0.470691037 C36.8796239,0.470691037 37.3796099,0.684769545 37.8072975,1.11292656 C38.2354545,1.54155305 38.449533,2.04106957 38.449533,2.61194559 L38.449533,30.2290121 C38.449533,30.5144502 38.592252,30.6571692 38.87769,30.6571692 C39.163128,30.6571692 39.3063165,30.5144502 39.3063165,30.2290121 L39.3063165,1.32700507 C39.3063165,0.756598519 39.591285,0.470691037 40.1626305,0.470691037 C40.7335065,0.470691037 41.0189446,0.756598519 41.0189446,1.32700507 L41.0189446,30.2290121 Z" id="Fill-4"></path>
                    <path d="M72.8319968,6.3795865 L73.4315105,5.78054226 C72.2606513,4.69559613 70.7907395,3.82566745 69.0213055,3.16840887 C67.2509325,2.51208924 65.4387768,2.18345995 63.5834297,2.18345995 C61.4708128,2.18345995 59.4154713,2.58344874 57.4178747,3.38248738 L57.2037962,3.46840047 L57.2037962,29.8864396 C57.2037962,30.514591 56.9746947,30.8286667 56.5183694,30.8286667 C56.3474822,30.8286667 56.1611024,30.7718608 55.9615775,30.65731 C55.3625333,30.3437038 54.8339096,30.0296281 54.3775843,29.7150829 C54.120784,29.5728333 53.7353488,29.2873953 53.2217482,28.8592383 C53.0217538,28.6597134 52.9217566,28.4456349 52.9217566,28.2170028 L52.9217566,6.63685629 C52.6072114,6.95140147 52.3222429,7.27909182 52.0654425,7.62180522 L52.0654425,25.4335127 C52.0654425,26.0903018 51.8086422,26.4184616 51.2945721,26.4184616 C50.980027,26.4184616 50.7091425,26.2330208 50.4814494,25.8616697 L49.9246575,24.9194426 C48.3833861,22.3228018 47.6125157,19.4679522 47.6125157,16.3563023 C47.6125157,15.2713561 47.7120434,14.2014331 47.9120378,13.1446552 L48.0833945,12.5883327 C48.2261135,12.1601757 48.5115515,11.9456277 48.9397085,11.9456277 C49.5960282,11.9456277 49.853298,12.2747265 49.710579,12.9305767 L49.5824135,13.487838 C49.4105874,14.2300708 49.3251437,15.186382 49.3251437,16.3563023 C49.3251437,18.3548378 49.6673877,20.224269 50.3528145,21.9650653 L50.3528145,7.36453543 C50.3528145,7.27909182 50.4096204,7.1222887 50.5237017,6.89365661 C50.8664151,6.35141828 51.2659344,5.83781765 51.7227291,5.35238524 C52.0936108,4.95286592 52.5935968,4.49560173 53.2217482,3.9820011 C53.478079,3.78247618 53.7207952,3.68247898 53.9494273,3.68247898 C54.4057526,3.68247898 54.6343847,3.99655468 54.6343847,4.62423663 L54.6343847,27.7888458 C54.7771037,27.9029271 55.0047968,28.0883679 55.319342,28.3451682 C55.3479797,28.3451682 55.3836594,28.3597218 55.4268507,28.38789 C55.4695725,28.4165277 55.4906987,28.4456349 55.4906987,28.4738031 L55.4906987,2.95433037 C55.4906987,2.58344874 55.6475018,2.32664842 55.9615775,2.18345995 L56.6465348,1.84121602 C58.4732442,0.928096061 60.785386,0.470831878 63.5834297,0.470831878 C65.6955771,0.470831878 67.7795562,0.871290141 69.8344282,1.66985931 C71.8897697,2.46936743 73.5601454,3.51112228 74.844147,4.79559333 L75.2295822,5.18055907 C75.4291072,5.38102293 75.5295738,5.58101733 75.5295738,5.78054226 C75.5295738,5.98006718 75.4291072,6.18006158 75.2295822,6.3795865 L73.4315105,8.17812766 C73.2315161,8.37812205 73.0315218,8.47811925 72.8319968,8.47811925 C72.6320024,8.47811925 72.4315386,8.37812205 72.2329526,8.17812766 L72.0188741,7.96404915 C69.8776195,5.82279459 67.0659612,4.75240205 63.5834297,4.75240205 C62.0989642,4.75240205 60.8285773,4.92375875 59.7727383,5.26647215 L59.7727383,30.229153 C61.1140153,30.514591 62.3844022,30.65731 63.5834297,30.65731 C67.5509241,30.6291418 70.9052902,29.3517128 73.6451196,26.825023 C76.3858879,24.2988027 77.7558025,21.2373862 77.7558025,17.6407733 L77.7558025,17.2126163 L64.5679091,17.2126163 C63.9970331,17.2126163 63.7115951,16.9276478 63.7115951,16.3563023 C63.7115951,15.7854262 63.9970331,15.4999882 64.5679091,15.4999882 L78.6548384,15.4999882 C79.2548216,15.4999882 79.5397901,15.7995104 79.5116219,16.3990241 L79.4689001,17.7262169 C79.3257116,21.780094 77.7703561,25.2194342 74.8014252,28.0451766 C71.7465812,30.9000262 68.0077189,32.3413004 63.5834297,32.3699381 C62.213515,32.3699381 60.6431365,32.1558596 58.8737025,31.7277025 L58.7018763,31.6849807 C58.2737193,31.57043 58.0596408,31.2995455 58.0596408,30.8713885 L58.0596408,4.62423663 C58.0596408,4.22471731 58.2591657,3.95383288 58.659624,3.8106444 C60.14362,3.29704377 61.785358,3.04024345 63.5834297,3.04024345 C67.2936544,3.04024345 70.377136,4.1533578 72.8319968,6.3795865" id="Fill-6"></path>
                    <path d="M106.186837,30.2290121 C106.186837,30.8003576 105.972758,31.2994047 105.544601,31.7275617 C105.116444,32.1557187 104.616458,32.3702667 104.045582,32.3702667 C103.474706,32.3702667 102.97519,32.1557187 102.547033,31.7275617 C102.119345,31.2994047 101.905267,30.8003576 101.905267,30.2290121 L101.905267,14.8148901 C101.905267,14.6435334 101.87616,14.5299215 101.819354,14.4721767 C101.761609,14.4153707 101.647997,14.386733 101.47711,14.386733 L94.7970152,14.386733 L94.3688582,14.8148901 L94.3688582,30.2290121 C94.3688582,30.8003576 94.1547796,31.2994047 93.7270921,31.7275617 C93.2989351,32.1557187 92.7989491,32.3702667 92.2285425,32.3702667 C91.657197,32.3702667 91.1576805,32.1557187 90.7295235,31.7275617 C90.3013665,31.2994047 90.087288,30.8003576 90.087288,30.2290121 L90.087288,2.61194559 C90.087288,2.32650758 89.9440995,2.18378858 89.659131,2.18378858 C89.373693,2.18378858 89.2309739,2.32650758 89.2309739,2.61194559 L89.2309739,30.2290121 C89.2309739,30.8003576 89.0168954,31.2994047 88.5887384,31.7275617 C88.1605814,32.1557187 87.6605954,32.3702667 87.0901889,32.3702667 C86.5183739,32.3702667 86.0197963,32.1557187 85.5916393,31.7275617 C85.1634823,31.2994047 84.9494038,30.8003576 84.9494038,30.2290121 L84.9494038,2.61194559 C84.9494038,2.32650758 84.8062153,2.18378858 84.5212468,2.18378858 C84.2353393,2.18378858 84.0926203,2.32650758 84.0926203,2.61194559 L84.0926203,31.5134832 C84.0926203,32.0843592 83.8071823,32.3702667 83.2363062,32.3702667 C82.6649607,32.3702667 82.3799922,32.0843592 82.3799922,31.5134832 L82.3799922,2.61194559 C82.3799922,2.04106957 82.5940707,1.54155305 83.0222277,1.11292656 C83.4503847,0.684769545 83.9499013,0.470691037 84.5212468,0.470691037 C85.0916533,0.470691037 85.5916393,0.684769545 86.0197963,1.11292656 C86.4479533,1.54155305 86.6620318,2.04106957 86.6620318,2.61194559 L86.6620318,30.2290121 C86.6620318,30.5144502 86.8047509,30.6571692 87.0901889,30.6571692 C87.3751574,30.6571692 87.5183459,30.5144502 87.5183459,30.2290121 L87.5183459,2.61194559 C87.5183459,2.04106957 87.7324244,1.54155305 88.1605814,1.11292656 C88.5887384,0.684769545 89.0877855,0.470691037 89.659131,0.470691037 C90.230007,0.470691037 90.7295235,0.684769545 91.1576805,1.11292656 C91.5858375,1.54155305 91.7999161,2.04106957 91.7999161,2.61194559 L91.7999161,30.2290121 C91.7999161,30.5144502 91.9426351,30.6571692 92.2285425,30.6571692 C92.5130416,30.6571692 92.6566996,30.5144502 92.6566996,30.2290121 L92.6566996,14.8148901 C92.6566996,14.3585648 92.8984768,13.8872165 93.3839092,13.4017841 C93.8693416,12.9168212 94.3406899,12.6736355 94.7970152,12.6736355 L101.47711,12.6736355 C102.90383,12.6736355 103.617425,13.3877 103.617425,14.8148901 L103.617425,30.2290121 C103.617425,30.5144502 103.760144,30.6571692 104.045582,30.6571692 C104.33102,30.6571692 104.474209,30.5144502 104.474209,30.2290121 L104.474209,2.61194559 C104.474209,2.32650758 104.33102,2.18378858 104.045582,2.18378858 C103.760144,2.18378858 103.617425,2.32650758 103.617425,2.61194559 L103.617425,9.67700585 C103.617425,10.1624383 103.382221,10.6398897 102.910872,11.1107685 C102.440463,11.5821168 101.962073,11.8173215 101.47711,11.8173215 L94.7970152,11.8173215 C94.3406899,11.8173215 93.8693416,11.5755442 93.3839092,11.0896423 C92.8984768,10.6046794 92.6566996,10.1333311 92.6566996,9.67700585 L92.6566996,1.32700507 C92.6566996,0.756598519 92.9411986,0.470691037 93.5130136,0.470691037 C94.0834201,0.470691037 94.3688582,0.756598519 94.3688582,1.32700507 L94.3688582,9.67700585 L94.7970152,10.1051629 L101.47711,10.1051629 C101.504808,10.1051629 101.583679,10.0403759 101.712314,9.91221053 C101.840949,9.78357563 101.905267,9.70517407 101.905267,9.67700585 L101.905267,2.61194559 C101.905267,2.04106957 102.119345,1.54155305 102.547033,1.11292656 C102.97519,0.684769545 103.474706,0.470691037 104.045582,0.470691037 C104.616458,0.470691037 105.116444,0.684769545 105.544601,1.11292656 C105.972758,1.54155305 106.186837,2.04106957 106.186837,2.61194559 L106.186837,30.2290121 Z" id="Fill-8"></path>
                    <path d="M141.468665,2.18369468 L132.220098,2.18369468 C132.190991,2.18369468 132.112589,2.22641649 131.984424,2.3118601 C131.855789,2.39777319 131.791941,2.49823986 131.791941,2.6118517 L131.791941,30.2289183 C131.791941,30.8002637 131.577863,31.2997803 131.149706,31.7279373 C130.721079,32.1560943 130.221562,32.3701728 129.650686,32.3701728 C129.079341,32.3701728 128.580294,32.1560943 128.152137,31.7279373 C127.72398,31.2997803 127.509901,30.8002637 127.509901,30.2289183 L127.509901,2.6118517 C127.509901,2.32688316 127.366713,2.18369468 127.081744,2.18369468 C126.795837,2.18369468 126.653587,2.32688316 126.653587,2.6118517 L126.653587,30.2289183 C126.653587,30.8002637 126.439509,31.2997803 126.011352,31.7279373 C125.583195,32.1560943 125.083678,32.3701728 124.512802,32.3701728 C123.941457,32.3701728 123.44241,32.1560943 123.013783,31.7279373 C122.585626,31.2997803 122.371548,30.8002637 122.371548,30.2289183 L122.371548,2.6118517 C122.371548,2.49823986 122.328826,2.39777319 122.243382,2.3118601 C122.157469,2.22641649 122.057003,2.18369468 121.943391,2.18369468 L111.581709,2.18369468 C111.295802,2.18369468 111.153552,2.32688316 111.153552,2.6118517 C111.153552,2.89775918 111.295802,3.04000872 111.581709,3.04000872 L119.374449,3.04000872 C120.002131,3.04000872 120.544838,3.29680903 121.001633,3.81087914 C121.344346,4.21039846 121.515234,4.66719317 121.515234,5.1807938 L121.515234,31.5138588 C121.515234,32.0842653 121.229796,32.3701728 120.659389,32.3701728 C120.087574,32.3701728 119.803075,32.0842653 119.803075,31.5138588 L119.803075,5.1807938 C119.803075,5.12398788 119.759884,5.0380748 119.67444,4.92399349 C119.588997,4.81038165 119.48853,4.75263679 119.374449,4.75263679 L111.581709,4.75263679 C111.010364,4.75263679 110.511317,4.53198569 110.08316,4.08927509 C109.655003,3.64656449 109.440924,3.15409003 109.440924,2.6118517 C109.440924,2.07008284 109.655003,1.57760838 110.08316,1.13489778 C110.511317,0.692187178 111.010364,0.471066613 111.581709,0.471066613 L121.943391,0.471066613 C122.628817,0.471066613 123.185609,0.742889983 123.613766,1.28465884 C123.927373,1.68464763 124.084645,2.12688876 124.084645,2.6118517 L124.084645,30.2289183 C124.084645,30.5148257 124.226895,30.6570753 124.512802,30.6570753 C124.797771,30.6570753 124.940959,30.5148257 124.940959,30.2289183 L124.940959,2.6118517 C124.940959,2.04097568 125.155038,1.54145916 125.583195,1.11330214 C126.011352,0.685145122 126.510399,0.471066613 127.081744,0.471066613 C127.652151,0.471066613 128.152137,0.685145122 128.580294,1.11330214 C129.008451,1.54145916 129.222529,2.04097568 129.222529,2.6118517 L129.222529,30.2289183 C129.222529,30.5148257 129.365248,30.6570753 129.650686,30.6570753 C129.936124,30.6570753 130.078843,30.5148257 130.078843,30.2289183 L130.078843,2.6118517 C130.078843,2.04097568 130.292922,1.54145916 130.721079,1.11330214 C131.149706,0.685145122 131.648283,0.471066613 132.220098,0.471066613 L141.468665,0.471066613 C142.039072,0.471066613 142.32451,0.756504625 142.32451,1.32738065 C142.32451,1.89872614 142.039072,2.18369468 141.468665,2.18369468" id="Fill-10"></path>
                </g>
                <g id="Group" transform="translate(0.000000, 37.088163)">
                    <polygon id="Fill-4" points="82.1594819 0.792653846 82.1594819 42.6783347 79.1107411 42.6783347 79.1107411 22.8023658 52.7110113 22.8023658 52.7110113 42.6783347 49.6627399 42.6783347 49.6627399 0.792653846 52.7110113 0.792653846 52.7110113 19.8756872 79.1107411 19.8756872 79.1107411 0.792653846"></polygon>
                    <path d="M-9.38940804e-05,36.7034786 L1.88999399,34.325611 C5.60913861,38.0442861 10.8521842,40.4226232 16.6445102,40.4226232 C23.4119262,40.4226232 27.801944,36.7645098 27.801944,31.9477433 C27.801944,27.3140703 24.0827994,24.875641 15.6079195,22.8634908 C6.2185112,20.7297478 1.88999399,17.8636309 1.88999399,11.9497121 C1.88999399,5.06070327 7.56025765,-0.000187788165 15.4858572,-0.000187788165 C20.9734968,-0.000187788165 26.033449,2.25561755 29.9967182,5.97476217 L28.1676615,8.35262981 C24.5705791,4.93864096 20.0589685,2.92649077 15.3032332,2.92649077 C9.26725207,2.92649077 4.93873486,6.70619707 4.93873486,11.706057 C4.93873486,15.8519502 8.71844116,17.9856932 17.1322899,19.9978434 C26.3386047,22.1926176 30.8502154,25.3019202 30.8502154,31.7040882 C30.8502154,38.3494419 25.3024835,43.3488323 16.5224478,43.3488323 C10.1207493,43.3488323 4.26786164,40.9099335 -9.38940804e-05,36.7034786" id="Fill-1"></path>
                    <polygon id="Fill-6" points="103.435599 42.6785694 106.483871 42.6785694 106.483871 0.792888582 103.435599 0.792888582"></polygon>
                    <polygon id="Fill-8" points="130.809293 3.78003493 130.809293 19.8758281 154.404406 19.8758281 154.404406 22.8025066 130.809293 22.8025066 130.809293 42.6780061 127.761021 42.6780061 127.761021 0.792794688 156.903867 0.792794688 156.903867 3.78003493"></polygon>
                    <polygon id="Fill-9" points="188.484015 3.78003493 173.546874 3.78003493 173.546874 0.792794688 206.469896 0.792794688 206.469896 3.78003493 191.532286 3.78003493 191.532286 42.6780061 188.484015 42.6780061"></polygon>
                </g>
            </g>
        </g>
    </g>
</svg>